<svg xmlns="http://www.w3.org/2000/svg" xmlns:xlink="http://www.w3.org/1999/xlink" width="449" height="300" viewBox="-0.7512 -0.5005 1.5025 1.0017"><style>svg {
  color-scheme: light dark;
}
{
  .canvas g, .title g, .axisbar g, .ticktext g, .tickglyph g, .ticklines g, .legendContent g text {
    fill: rgb(5%, 5%, 5%);
  }
  .ticklines g, .tickglyph g, .legendBorder g {
    stroke: rgb(5%, 5%, 5%);
  }
  .legendBorder g {
    fill: rgb(94%, 94%, 94%);
  }
}
@media (prefers-color-scheme:dark) {
  .canvas g, .title g, .axisbar g, .ticktext g, .tickglyph g, .ticklines g, .legendContent g text {
    fill: rgb(94%, 94%, 94%);
  }
  .ticklines g, .tickglyph g, .legendBorder g {
    stroke: rgb(94%, 94%, 94%);
  }
  .legendBorder g {
    fill: rgb(5%, 5%, 5%);
  }
}
svg { font-family: system-ui,-apple-system,"Segoe UI",Roboto,"Helvetica Neue",Arial,"Noto Sans","Liberation Sans",sans-serif,"Apple Color Emoji","Segoe UI Emoji","Segoe UI Symbol","Noto Color Emoji";
}

ticktext { font-family: SFMono-Regular,Menlo,Monaco,Consolas,"Liberation Mono","Courier New",monospace;
}

</style><g class="chart"><g class="histogram"><g stroke-width="0.0100" stroke="rgb(66%, 7%, 55%)" stroke-opacity="1.0" fill="rgb(66%, 7%, 55%)" fill-opacity="0.2"><rect width="0.0001" height="0.0898" x="-0.7152" y="0.3123"/><rect width="0.0026" height="0.0898" x="-0.7152" y="0.2226"/><rect width="0.0507" height="0.0898" x="-0.7152" y="0.1328"/><rect width="0.3967" height="0.0898" x="-0.7152" y="0.0431"/><rect width="1.0652" height="0.0898" x="-0.7152" y="-0.0467"/><rect width="1.3400" height="0.0898" x="-0.7152" y="-0.1365"/><rect width="0.5852" height="0.0898" x="-0.7152" y="-0.2262"/><rect width="0.1242" height="0.0898" x="-0.7152" y="-0.3160"/><rect width="0.0113" height="0.0898" x="-0.7152" y="-0.4057"/><rect width="0.0002" height="0.0898" x="-0.7152" y="-0.4955"/></g></g><g class="datapadding"></g></g><g class="hud"><g class="axis"><g class="axisbar"><g stroke-width="0" stroke="rgb(0%, 0%, 0%)" stroke-opacity="0" fill="rgb(5%, 5%, 5%)" fill-opacity="0.4"><rect width="1.4343" height="0.0036" x="-0.7172" y="0.4111"/></g></g><g class="ticks"><g class="tickglyph"><g stroke-width="0.0036" stroke="rgb(5%, 5%, 5%)" stroke-opacity="0.4" fill="rgb(5%, 5%, 5%)" fill-opacity="0.4"><polyline points="-0.7152,0.4398
-0.7152,0.4129"/><polyline points="-0.3576,0.4398
-0.3576,0.4129"/><polyline points="0,0.4398
0,0.4129"/><polyline points="0.3576,0.4398
0.3576,0.4129"/><polyline points="0.7152,0.4398
0.7152,0.4129"/></g></g><g class="ticktext"><g stroke-width="0.0" stroke="none" fill="rgb(5%, 5%, 5%)" fill-opacity="1.0" font-size="0.0400" text-anchor="middle"><text x="-0.7152" y="0.4892">0.0</text><text x="-0.3576" y="0.4892">0.1</text><text x="0" y="0.4892">0.2</text><text x="0.3576" y="0.4892">0.3</text><text x="0.7152" y="0.4892">0.4</text></g></g></g></g></g></svg>