<svg xmlns="http://www.w3.org/2000/svg" xmlns:xlink="http://www.w3.org/1999/xlink" width="299" height="300" viewBox="-0.4995 -0.5 0.9991 1.0"><style>svg {
  color-scheme: light dark;
}
{
  .canvas g, .title g, .axisbar g, .ticktext g, .tickglyph g, .ticklines g, .legendContent g text {
    fill: rgb(5%, 5%, 5%);
  }
  .ticklines g, .tickglyph g, .legendBorder g {
    stroke: rgb(5%, 5%, 5%);
  }
  .legendBorder g {
    fill: rgb(94%, 94%, 94%);
  }
}
@media (prefers-color-scheme:dark) {
  .canvas g, .title g, .axisbar g, .ticktext g, .tickglyph g, .ticklines g, .legendContent g text {
    fill: rgb(94%, 94%, 94%);
  }
  .ticklines g, .tickglyph g, .legendBorder g {
    stroke: rgb(94%, 94%, 94%);
  }
  .legendBorder g {
    fill: rgb(5%, 5%, 5%);
  }
}
svg { font-family: system-ui,-apple-system,"Segoe UI",Roboto,"Helvetica Neue",Arial,"Noto Sans","Liberation Sans",sans-serif,"Apple Color Emoji","Segoe UI Emoji","Segoe UI Symbol","Noto Color Emoji";
}

ticktext { font-family: SFMono-Regular,Menlo,Monaco,Consolas,"Liberation Mono","Courier New",monospace;
}

</style><g class="chart"><g stroke-width="0" stroke="rgb(2%, 29%, 48%)" stroke-opacity="1.0" fill="rgb(2%, 73%, 80%)" fill-opacity="0.3"><path d="M 0.0139,-0.0177 L 0.0139,-0.4954 A 0.4778 0.4778 0 0 1 0.4681,-0.1659 L 0.0139,-0.0177"/></g><g stroke-width="0" stroke="rgb(2%, 29%, 48%)" stroke-opacity="1.0" fill="rgb(2%, 29%, 48%)" fill-opacity="0.3"><path d="M 0.0218,0.0112 L 0.4760,-0.1370 A 0.4778 0.4778 0 0 1 0.2236,0.4442 L 0.0218,0.0112"/></g><g stroke-width="0" stroke="rgb(2%, 29%, 48%)" stroke-opacity="1.0" fill="rgb(66%, 7%, 55%)" fill-opacity="0.3"><path d="M -0.0124,0.0222 L 0.1895,0.4553 A 0.4778 0.4778 0 0 1 -0.4893,0.0514 L -0.0124,0.0222"/></g><g stroke-width="0" stroke="rgb(2%, 29%, 48%)" stroke-opacity="1.0" fill="rgb(96%, 60%, 92%)" fill-opacity="0.3"><path d="M -0.0218,-0.0085 L -0.4987,0.0207 A 0.4778 0.4778 0 0 1 -0.3024,-0.3952 L -0.0218,-0.0085"/></g><g stroke-width="0" stroke="rgb(2%, 29%, 48%)" stroke-opacity="1.0" fill="rgb(100%, 71%, 35%)" fill-opacity="0.3"><path d="M -0.0075,-0.0210 L -0.2881,-0.4078 A 0.4778 0.4778 0 0 1 -0.0075,-0.4988 L -0.0075,-0.0210"/></g><g stroke-width="0" stroke="rgb(2%, 29%, 48%)" stroke-opacity="1.0" fill="rgb(73%, 34%, 1%)" fill-opacity="0.3"><path d="M -0.0002,-0.0222 L -0.0002,-0.5 A 0.4778 0.4778 0 0 1 -0.0002,-0.5 L -0.0002,-0.0222"/></g><g stroke-width="0.0" stroke="none" fill="rgb(-60%, 38%, 45%)" fill-opacity="1.0" font-size="0.0500" text-anchor="middle"><text x="0.1963" y="-0.2690">person</text></g><g stroke-width="0.0" stroke="none" fill="rgb(-8%, 12%, 29%)" fill-opacity="1.0" font-size="0.0500" text-anchor="middle"><text x="0.3066" y="0.1349">woman</text></g><g stroke-width="0.0" stroke="none" fill="rgb(39%, -24%, 31%)" fill-opacity="1.0" font-size="0.0500" text-anchor="middle"><text x="-0.1712" y="0.2891">man</text></g><g stroke-width="0.0" stroke="none" fill="rgb(54%, 21%, 52%)" fill-opacity="1.0" font-size="0.0500" text-anchor="middle"><text x="-0.3026" y="-0.1411">camera</text></g><g stroke-width="0.0" stroke="none" fill="rgb(57%, 31%, -28%)" fill-opacity="1.0" font-size="0.0500" text-anchor="middle"><text x="-0.1034" y="-0.3164">tv</text></g></g><g class="hud"></g></svg>