<svg xmlns="http://www.w3.org/2000/svg" xmlns:xlink="http://www.w3.org/1999/xlink" width="450" height="300" viewBox="-0.75 -0.5 1.5 1.0"><style>svg {
  color-scheme: light dark;
}
{
  .canvas g, .title g, .axisbar g, .ticktext g, .tickglyph g, .ticklines g, .legendContent g text {
    fill: rgb(5%, 5%, 5%);
  }
  .ticklines g, .tickglyph g, .legendBorder g {
    stroke: rgb(5%, 5%, 5%);
  }
  .legendBorder g {
    fill: rgb(94%, 94%, 94%);
  }
}
@media (prefers-color-scheme:dark) {
  .canvas g, .title g, .axisbar g, .ticktext g, .tickglyph g, .ticklines g, .legendContent g text {
    fill: rgb(94%, 94%, 94%);
  }
  .ticklines g, .tickglyph g, .legendBorder g {
    stroke: rgb(94%, 94%, 94%);
  }
  .legendBorder g {
    fill: rgb(5%, 5%, 5%);
  }
}
svg { font-family: system-ui,-apple-system,"Segoe UI",Roboto,"Helvetica Neue",Arial,"Noto Sans","Liberation Sans",sans-serif,"Apple Color Emoji","Segoe UI Emoji","Segoe UI Symbol","Noto Color Emoji";
}

ticktext { font-family: SFMono-Regular,Menlo,Monaco,Consolas,"Liberation Mono","Courier New",monospace;
}

</style><g class="chart"><g class="scatterPlot"><g stroke-width="0.0030" stroke="rgb(2%, 29%, 48%)" stroke-opacity="1.0" fill="rgb(2%, 73%, 80%)" fill-opacity="1.0"><circle cx="0.2733" cy="0.1320" r="0.0150"/><circle cx="0.1205" cy="0.0708" r="0.0150"/><circle cx="0.1563" cy="0.2485" r="0.0150"/><circle cx="-0.1460" cy="0.2063" r="0.0150"/><circle cx="0.1165" cy="0.0373" r="0.0150"/><circle cx="0.1928" cy="0.1830" r="0.0150"/><circle cx="0.2034" cy="0.1810" r="0.0150"/><circle cx="0.3033" cy="0.2490" r="0.0150"/><circle cx="0.0303" cy="-0.0024" r="0.0150"/><circle cx="0.2058" cy="0.2275" r="0.0150"/><circle cx="0.0181" cy="0.1407" r="0.0150"/><circle cx="-0.0712" cy="-0.1004" r="0.0150"/><circle cx="-0.0980" cy="0.0787" r="0.0150"/><circle cx="0.3228" cy="0.0587" r="0.0150"/><circle cx="-0.1590" cy="-0.0657" r="0.0150"/><circle cx="0.1319" cy="0.2046" r="0.0150"/><circle cx="-0.2386" cy="-0.0788" r="0.0150"/><circle cx="0.0766" cy="-0.1038" r="0.0150"/><circle cx="0.2196" cy="0.0541" r="0.0150"/><circle cx="0.2326" cy="0.1803" r="0.0150"/><circle cx="0.0466" cy="0.1453" r="0.0150"/><circle cx="-0.1468" cy="0.1785" r="0.0150"/><circle cx="0.1538" cy="0.0677" r="0.0150"/><circle cx="0.1002" cy="0.0795" r="0.0150"/><circle cx="-0.2037" cy="0.1867" r="0.0150"/><circle cx="0.2050" cy="0.1225" r="0.0150"/><circle cx="0.0848" cy="0.2228" r="0.0150"/><circle cx="-0.0014" cy="0.1224" r="0.0150"/><circle cx="0.0970" cy="0.0836" r="0.0150"/><circle cx="0.0921" cy="0.0933" r="0.0150"/><circle cx="0.0474" cy="0.0155" r="0.0150"/><circle cx="-0.2142" cy="0.1360" r="0.0150"/><circle cx="0.2058" cy="0.0687" r="0.0150"/><circle cx="0.1920" cy="0.0361" r="0.0150"/><circle cx="0.3757" cy="-0.0031" r="0.0150"/><circle cx="0.1384" cy="-0.0507" r="0.0150"/><circle cx="0.0840" cy="0.1779" r="0.0150"/><circle cx="-0.2142" cy="-0.0046" r="0.0150"/><circle cx="-0.2264" cy="0.0750" r="0.0150"/><circle cx="-0.0582" cy="0.0208" r="0.0150"/><circle cx="0.0970" cy="0.0756" r="0.0150"/><circle cx="0.0669" cy="0.1506" r="0.0150"/><circle cx="0.2611" cy="0.0306" r="0.0150"/><circle cx="0.0555" cy="-0.0823" r="0.0150"/><circle cx="0.0677" cy="0.1435" r="0.0150"/><circle cx="-0.0103" cy="0.0470" r="0.0150"/><circle cx="0.0068" cy="-0.0129" r="0.0150"/><circle cx="-0.0200" cy="0.1407" r="0.0150"/><circle cx="0.0945" cy="0.2420" r="0.0150"/><circle cx="0.0799" cy="0.0447" r="0.0150"/><circle cx="0.1969" cy="0.0968" r="0.0150"/><circle cx="0.0880" cy="0.1069" r="0.0150"/><circle cx="0.0596" cy="0.1500" r="0.0150"/><circle cx="0.5260" cy="0.2570" r="0.0150"/><circle cx="0.0458" cy="0.0326" r="0.0150"/><circle cx="0.0149" cy="0.0137" r="0.0150"/><circle cx="0.3342" cy="0.1116" r="0.0150"/><circle cx="0.2757" cy="0.1809" r="0.0150"/><circle cx="0.0970" cy="-0.1079" r="0.0150"/><circle cx="0.1620" cy="0.0394" r="0.0150"/><circle cx="-0.0152" cy="0.0795" r="0.0150"/><circle cx="0.0791" cy="0.1654" r="0.0150"/><circle cx="0.5317" cy="0.1983" r="0.0150"/><circle cx="-0.1119" cy="0.0990" r="0.0150"/><circle cx="0.2278" cy="0.1731" r="0.0150"/><circle cx="-0.1834" cy="0.2046" r="0.0150"/><circle cx="0.1579" cy="0.1957" r="0.0150"/><circle cx="0.1433" cy="-0.0716" r="0.0150"/><circle cx="0.0474" cy="0.0287" r="0.0150"/><circle cx="0.2781" cy="0.1231" r="0.0150"/><circle cx="0.1587" cy="0.0593" r="0.0150"/><circle cx="0.1230" cy="0.1202" r="0.0150"/><circle cx="0.1782" cy="0.0034" r="0.0150"/><circle cx="-0.0493" cy="0.1103" r="0.0150"/><circle cx="0.2603" cy="0.0524" r="0.0150"/><circle cx="0.2879" cy="0.1488" r="0.0150"/><circle cx="-0.0477" cy="-0.1058" r="0.0150"/><circle cx="0.2205" cy="-0.0209" r="0.0150"/><circle cx="-0.1980" cy="0.0944" r="0.0150"/><circle cx="0.2245" cy="0.1559" r="0.0150"/><circle cx="0.1408" cy="0.0857" r="0.0150"/><circle cx="-0.2029" cy="0.0995" r="0.0150"/><circle cx="0.1839" cy="0.1320" r="0.0150"/><circle cx="0.0766" cy="0.0955" r="0.0150"/><circle cx="0.1815" cy="0.1289" r="0.0150"/><circle cx="-0.1574" cy="0.0253" r="0.0150"/><circle cx="0.0718" cy="0.1288" r="0.0150"/><circle cx="0.0425" cy="0.2742" r="0.0150"/><circle cx="0.4813" cy="0.0629" r="0.0150"/><circle cx="-0.2102" cy="0.0647" r="0.0150"/><circle cx="0.2156" cy="-0.0660" r="0.0150"/><circle cx="0.1132" cy="0.0377" r="0.0150"/><circle cx="-0.0761" cy="0.1665" r="0.0150"/><circle cx="0.1603" cy="-0.0125" r="0.0150"/><circle cx="0.3074" cy="0.0779" r="0.0150"/><circle cx="0.1416" cy="0.2969" r="0.0150"/><circle cx="0.2798" cy="0.2670" r="0.0150"/><circle cx="0.3066" cy="0.0409" r="0.0150"/><circle cx="0.1644" cy="0.0997" r="0.0150"/><circle cx="0.0303" cy="-0.0704" r="0.0150"/><circle cx="0.1888" cy="-0.0588" r="0.0150"/><circle cx="0.1181" cy="0.0424" r="0.0150"/><circle cx="-0.1273" cy="0.0783" r="0.0150"/><circle cx="-0.0761" cy="0.1196" r="0.0150"/><circle cx="0.2270" cy="-0.0767" r="0.0150"/><circle cx="0.2099" cy="0.0586" r="0.0150"/><circle cx="-0.0542" cy="0.1169" r="0.0150"/><circle cx="0.0230" cy="0.1124" r="0.0150"/><circle cx="-0.0924" cy="0.0979" r="0.0150"/><circle cx="-0.1476" cy="-0.0737" r="0.0150"/><circle cx="0.1002" cy="-0.1421" r="0.0150"/><circle cx="0.1815" cy="0.0366" r="0.0150"/><circle cx="0.0320" cy="0.0955" r="0.0150"/><circle cx="-0.0249" cy="0.0663" r="0.0150"/><circle cx="0.2050" cy="0.1290" r="0.0150"/><circle cx="-0.0314" cy="0.0300" r="0.0150"/><circle cx="0.0718" cy="0.0528" r="0.0150"/><circle cx="0.1652" cy="0.0982" r="0.0150"/><circle cx="0.0645" cy="-0.0853" r="0.0150"/><circle cx="0.0222" cy="0.2928" r="0.0150"/><circle cx="0.0393" cy="-0.0127" r="0.0150"/><circle cx="0.0368" cy="0.1836" r="0.0150"/><circle cx="0.0653" cy="-0.0082" r="0.0150"/><circle cx="0.1961" cy="0.1692" r="0.0150"/><circle cx="0.0547" cy="0.1360" r="0.0150"/><circle cx="0.0766" cy="0.1481" r="0.0150"/><circle cx="0.1977" cy="0.1289" r="0.0150"/><circle cx="-0.2248" cy="0.2393" r="0.0150"/><circle cx="-0.0379" cy="0.0675" r="0.0150"/><circle cx="0.1343" cy="0.0562" r="0.0150"/><circle cx="0.2448" cy="0.2692" r="0.0150"/><circle cx="0.0978" cy="-0.0916" r="0.0150"/><circle cx="-0.0387" cy="0.1329" r="0.0150"/><circle cx="0.0636" cy="0.0289" r="0.0150"/><circle cx="0.0116" cy="0.1498" r="0.0150"/><circle cx="-0.1484" cy="0.1346" r="0.0150"/><circle cx="0.1644" cy="0.2212" r="0.0150"/><circle cx="0.1335" cy="0.1566" r="0.0150"/><circle cx="0.1140" cy="0.0587" r="0.0150"/><circle cx="-0.3264" cy="0.0192" r="0.0150"/><circle cx="0.0255" cy="-0.1395" r="0.0150"/><circle cx="-0.0404" cy="0.0257" r="0.0150"/><circle cx="-0.1184" cy="0.0692" r="0.0150"/><circle cx="0.0799" cy="-0.0123" r="0.0150"/><circle cx="0.3009" cy="0.1047" r="0.0150"/><circle cx="0.0466" cy="0.0547" r="0.0150"/><circle cx="-0.1379" cy="0.0745" r="0.0150"/><circle cx="0.0693" cy="0.0318" r="0.0150"/><circle cx="-0.0867" cy="0.0493" r="0.0150"/><circle cx="0.1750" cy="0.1758" r="0.0150"/><circle cx="0.3082" cy="0.0698" r="0.0150"/><circle cx="0.1108" cy="0.1457" r="0.0150"/><circle cx="0.3643" cy="0.0339" r="0.0150"/><circle cx="-0.0818" cy="0.1686" r="0.0150"/><circle cx="0.2164" cy="-0.0254" r="0.0150"/><circle cx="0.2448" cy="0.0867" r="0.0150"/><circle cx="0.0596" cy="-0.0880" r="0.0150"/><circle cx="-0.0452" cy="0.0803" r="0.0150"/><circle cx="0.1896" cy="0.2502" r="0.0150"/><circle cx="-0.1435" cy="0.0676" r="0.0150"/><circle cx="0.0864" cy="0.1643" r="0.0150"/><circle cx="-0.0322" cy="0.0024" r="0.0150"/><circle cx="-0.0200" cy="0.0257" r="0.0150"/><circle cx="0.2660" cy="0.1021" r="0.0150"/><circle cx="-0.0412" cy="-0.0286" r="0.0150"/><circle cx="-0.2256" cy="0.0832" r="0.0150"/><circle cx="0.0750" cy="0.1215" r="0.0150"/><circle cx="-0.0192" cy="-0.0369" r="0.0150"/><circle cx="-0.0615" cy="0.0509" r="0.0150"/><circle cx="-0.1785" cy="0.0829" r="0.0150"/><circle cx="-0.0558" cy="0.1088" r="0.0150"/><circle cx="0.2001" cy="0.1015" r="0.0150"/><circle cx="-0.1907" cy="0.0541" r="0.0150"/><circle cx="-0.2443" cy="0.2419" r="0.0150"/><circle cx="0.3765" cy="0.1272" r="0.0150"/><circle cx="0.0084" cy="0.1588" r="0.0150"/><circle cx="-0.0274" cy="0.1844" r="0.0150"/><circle cx="0.1075" cy="0.1620" r="0.0150"/><circle cx="0.2586" cy="0.2139" r="0.0150"/><circle cx="0.0133" cy="0.1878" r="0.0150"/><circle cx="-0.0217" cy="0.1530" r="0.0150"/><circle cx="0.0677" cy="-0.0018" r="0.0150"/><circle cx="0.0766" cy="0.0357" r="0.0150"/><circle cx="0.1514" cy="0.1858" r="0.0150"/><circle cx="0.3919" cy="0.2503" r="0.0150"/><circle cx="0.2091" cy="0.0754" r="0.0150"/><circle cx="0.0685" cy="0.0729" r="0.0150"/><circle cx="-0.1647" cy="0.0381" r="0.0150"/><circle cx="-0.1289" cy="0.0562" r="0.0150"/><circle cx="0.1173" cy="0.1847" r="0.0150"/><circle cx="0.1051" cy="0.1899" r="0.0150"/><circle cx="0.1311" cy="0.0750" r="0.0150"/><circle cx="-0.0534" cy="0.0851" r="0.0150"/><circle cx="0.3505" cy="-0.0216" r="0.0150"/><circle cx="-0.0907" cy="0.2116" r="0.0150"/><circle cx="0.0937" cy="-0.1284" r="0.0150"/><circle cx="0.0084" cy="-0.0922" r="0.0150"/><circle cx="-0.0525" cy="0.0924" r="0.0150"/><circle cx="0.1490" cy="0.0759" r="0.0150"/><circle cx="0.0612" cy="-0.1378" r="0.0150"/><circle cx="0.1173" cy="0.1377" r="0.0150"/><circle cx="0.3407" cy="0.1828" r="0.0150"/><circle cx="0.1611" cy="0.0424" r="0.0150"/><circle cx="0.2741" cy="-0.0124" r="0.0150"/><circle cx="0.1286" cy="0.0596" r="0.0150"/><circle cx="0.0490" cy="-0.0701" r="0.0150"/><circle cx="-0.0452" cy="0.1251" r="0.0150"/><circle cx="0.0515" cy="0.0277" r="0.0150"/><circle cx="0.1327" cy="0.0438" r="0.0150"/><circle cx="-0.2183" cy="-0.1222" r="0.0150"/><circle cx="0.0141" cy="0.2942" r="0.0150"/><circle cx="0.0368" cy="0.0622" r="0.0150"/><circle cx="0.1514" cy="0.0892" r="0.0150"/><circle cx="0.4439" cy="0.0432" r="0.0150"/><circle cx="-0.0152" cy="0.0176" r="0.0150"/><circle cx="0.2408" cy="0.1228" r="0.0150"/><circle cx="0.0190" cy="0.2243" r="0.0150"/><circle cx="0.1880" cy="0.0020" r="0.0150"/><circle cx="0.2465" cy="0.0576" r="0.0150"/><circle cx="0.1538" cy="-0.0473" r="0.0150"/><circle cx="0.0515" cy="0.2694" r="0.0150"/><circle cx="0.1587" cy="0.2639" r="0.0150"/><circle cx="-0.0891" cy="0.1124" r="0.0150"/><circle cx="0.0937" cy="0.2093" r="0.0150"/><circle cx="-0.0915" cy="-0.0688" r="0.0150"/><circle cx="0.0328" cy="0.1010" r="0.0150"/><circle cx="-0.0875" cy="0.0895" r="0.0150"/><circle cx="0.0766" cy="-0.0281" r="0.0150"/><circle cx="0.1555" cy="0.0729" r="0.0150"/><circle cx="0.1465" cy="0.2470" r="0.0150"/><circle cx="0.0482" cy="0.1180" r="0.0150"/><circle cx="-0.0274" cy="0.1194" r="0.0150"/><circle cx="-0.1305" cy="0.1891" r="0.0150"/><circle cx="0.1173" cy="-0.0099" r="0.0150"/><circle cx="0.0766" cy="0.0901" r="0.0150"/><circle cx="-0.1882" cy="0.2567" r="0.0150"/><circle cx="0.1603" cy="-0.3124" r="0.0150"/><circle cx="0.1319" cy="0.1202" r="0.0150"/><circle cx="-0.1200" cy="0.1521" r="0.0150"/><circle cx="-0.1614" cy="0.0958" r="0.0150"/><circle cx="0.1652" cy="0.0799" r="0.0150"/><circle cx="0.3537" cy="0.1673" r="0.0150"/><circle cx="0.1368" cy="-0.1133" r="0.0150"/><circle cx="0.1173" cy="0.0767" r="0.0150"/><circle cx="-0.2979" cy="0.0331" r="0.0150"/><circle cx="0.0043" cy="-0.1270" r="0.0150"/><circle cx="-0.1135" cy="0.1692" r="0.0150"/><circle cx="0.3253" cy="0.1816" r="0.0150"/><circle cx="0.1880" cy="0.0378" r="0.0150"/><circle cx="0.1408" cy="0.0946" r="0.0150"/><circle cx="0.0840" cy="0.1438" r="0.0150"/><circle cx="0.0896" cy="-0.0388" r="0.0150"/><circle cx="0.0458" cy="-0.1065" r="0.0150"/><circle cx="-0.0404" cy="0.2281" r="0.0150"/><circle cx="0.4082" cy="0.0851" r="0.0150"/><circle cx="-0.0347" cy="-0.0377" r="0.0150"/><circle cx="0.3228" cy="0.0040" r="0.0150"/><circle cx="0.1815" cy="-0.0758" r="0.0150"/><circle cx="0.2456" cy="-0.0845" r="0.0150"/><circle cx="0.3334" cy="0.1453" r="0.0150"/><circle cx="0.1441" cy="0.1877" r="0.0150"/><circle cx="-0.0412" cy="0.0802" r="0.0150"/><circle cx="-0.1054" cy="0.1041" r="0.0150"/><circle cx="-0.0924" cy="0.1052" r="0.0150"/><circle cx="0.0734" cy="0.0596" r="0.0150"/><circle cx="0.3765" cy="0.1507" r="0.0150"/><circle cx="0.1465" cy="0.1829" r="0.0150"/><circle cx="0.1408" cy="0.0268" r="0.0150"/><circle cx="0.2814" cy="0.1132" r="0.0150"/><circle cx="-0.1314" cy="0.0773" r="0.0150"/><circle cx="-0.1622" cy="0.1686" r="0.0150"/><circle cx="-0.1070" cy="-0.1354" r="0.0150"/><circle cx="0.0425" cy="0.1290" r="0.0150"/><circle cx="-0.0005" cy="0.1136" r="0.0150"/><circle cx="0.1611" cy="-0.0503" r="0.0150"/><circle cx="-0.0363" cy="0.0919" r="0.0150"/><circle cx="0.2237" cy="0.2686" r="0.0150"/><circle cx="-0.0810" cy="0.1984" r="0.0150"/><circle cx="-0.2045" cy="0.2167" r="0.0150"/><circle cx="0.0693" cy="0.2862" r="0.0150"/><circle cx="0.3188" cy="-0.0553" r="0.0150"/><circle cx="0.1823" cy="0.1715" r="0.0150"/><circle cx="-0.0168" cy="0.1711" r="0.0150"/><circle cx="-0.0144" cy="-0.0069" r="0.0150"/><circle cx="0.1124" cy="0.1196" r="0.0150"/><circle cx="0.1327" cy="0.0152" r="0.0150"/><circle cx="0.2416" cy="0.0623" r="0.0150"/><circle cx="0.1628" cy="-0.0375" r="0.0150"/><circle cx="0.1189" cy="0.1084" r="0.0150"/><circle cx="0.2668" cy="0.0269" r="0.0150"/><circle cx="-0.0664" cy="0.1200" r="0.0150"/><circle cx="-0.1192" cy="0.0789" r="0.0150"/><circle cx="0.2391" cy="0.2344" r="0.0150"/><circle cx="0.1303" cy="0.1355" r="0.0150"/><circle cx="0.0368" cy="0.0124" r="0.0150"/><circle cx="0.0515" cy="-0.0640" r="0.0150"/><circle cx="0.1254" cy="0.1507" r="0.0150"/><circle cx="0.1067" cy="-0.0913" r="0.0150"/><circle cx="-0.1801" cy="-0.0828" r="0.0150"/><circle cx="0.3691" cy="0.1983" r="0.0150"/><circle cx="0.2611" cy="0.1514" r="0.0150"/><circle cx="0.2229" cy="0.1127" r="0.0150"/><circle cx="0.0701" cy="0.1930" r="0.0150"/><circle cx="0.1156" cy="0.0245" r="0.0150"/><circle cx="0.1351" cy="-0.0375" r="0.0150"/><circle cx="0.1676" cy="0.1688" r="0.0150"/><circle cx="0.2050" cy="-0.0379" r="0.0150"/><circle cx="-0.3166" cy="-0.0646" r="0.0150"/><circle cx="0.0669" cy="0.0851" r="0.0150"/><circle cx="-0.1249" cy="0.2128" r="0.0150"/><circle cx="-0.1695" cy="0.1518" r="0.0150"/><circle cx="-0.1200" cy="0.0601" r="0.0150"/><circle cx="0.0710" cy="0.0472" r="0.0150"/><circle cx="-0.0022" cy="0.1346" r="0.0150"/><circle cx="-0.3637" cy="0.1028" r="0.0150"/><circle cx="0.1693" cy="0.0395" r="0.0150"/><circle cx="-0.0355" cy="0.1384" r="0.0150"/><circle cx="0.2911" cy="-0.0127" r="0.0150"/><circle cx="0.0758" cy="-0.0098" r="0.0150"/><circle cx="-0.0322" cy="0.0820" r="0.0150"/><circle cx="0.3090" cy="0.1224" r="0.0150"/><circle cx="-0.0176" cy="0.0223" r="0.0150"/><circle cx="0.0588" cy="0.0390" r="0.0150"/><circle cx="-0.0704" cy="0.1716" r="0.0150"/><circle cx="0.0913" cy="0.1436" r="0.0150"/><circle cx="0.0961" cy="0.1438" r="0.0150"/><circle cx="0.2432" cy="0.0744" r="0.0150"/><circle cx="0.2010" cy="0.0982" r="0.0150"/><circle cx="0.1181" cy="0.1968" r="0.0150"/><circle cx="0.1611" cy="0.2856" r="0.0150"/><circle cx="-0.1720" cy="-0.0548" r="0.0150"/><circle cx="-0.2467" cy="0.0664" r="0.0150"/><circle cx="0.1286" cy="0.1701" r="0.0150"/><circle cx="0.1205" cy="0.1660" r="0.0150"/><circle cx="0.1733" cy="-0.0558" r="0.0150"/><circle cx="-0.1037" cy="0.1151" r="0.0150"/><circle cx="-0.0404" cy="0.0972" r="0.0150"/><circle cx="-0.1639" cy="0.0604" r="0.0150"/><circle cx="-0.0225" cy="0.1382" r="0.0150"/><circle cx="0.0799" cy="0.2279" r="0.0150"/><circle cx="0.1750" cy="0.0264" r="0.0150"/><circle cx="-0.0745" cy="0.0444" r="0.0150"/><circle cx="0.1904" cy="0.1100" r="0.0150"/><circle cx="0.4228" cy="0.0585" r="0.0150"/><circle cx="0.3180" cy="0.1298" r="0.0150"/><circle cx="0.0726" cy="0.0220" r="0.0150"/><circle cx="0.1108" cy="-0.0375" r="0.0150"/><circle cx="0.3757" cy="0.1983" r="0.0150"/><circle cx="0.1815" cy="-0.0633" r="0.0150"/><circle cx="-0.2784" cy="0.0300" r="0.0150"/><circle cx="-0.1208" cy="-0.0506" r="0.0150"/><circle cx="0.1010" cy="-0.0093" r="0.0150"/><circle cx="-0.1874" cy="-0.1108" r="0.0150"/><circle cx="-0.0347" cy="0.2362" r="0.0150"/><circle cx="-0.2995" cy="0.0715" r="0.0150"/><circle cx="-0.0932" cy="0.0663" r="0.0150"/><circle cx="-0.1257" cy="0.0728" r="0.0150"/><circle cx="0.1815" cy="0.1252" r="0.0150"/><circle cx="-0.0720" cy="0.1021" r="0.0150"/><circle cx="0.0742" cy="0.2370" r="0.0150"/><circle cx="-0.0135" cy="-0.0809" r="0.0150"/><circle cx="0.1433" cy="0.0569" r="0.0150"/><circle cx="0.2237" cy="0.0906" r="0.0150"/><circle cx="0.3545" cy="0.0211" r="0.0150"/><circle cx="0.1311" cy="0.2275" r="0.0150"/><circle cx="0.3180" cy="0.1444" r="0.0150"/><circle cx="0.1652" cy="0.2139" r="0.0150"/><circle cx="-0.0176" cy="0.0172" r="0.0150"/><circle cx="0.1969" cy="-0.0490" r="0.0150"/><circle cx="0.0287" cy="0.1854" r="0.0150"/><circle cx="-0.0534" cy="0.1104" r="0.0150"/><circle cx="0.0393" cy="-0.0894" r="0.0150"/><circle cx="-0.0176" cy="0.1962" r="0.0150"/><circle cx="-0.0200" cy="0.2676" r="0.0150"/><circle cx="-0.0184" cy="0.0567" r="0.0150"/><circle cx="0.0831" cy="-0.0739" r="0.0150"/><circle cx="-0.1517" cy="-0.1044" r="0.0150"/><circle cx="-0.0209" cy="0.1087" r="0.0150"/><circle cx="0.0433" cy="-0.0453" r="0.0150"/><circle cx="0.3423" cy="0.1453" r="0.0150"/><circle cx="0.2310" cy="-0.2330" r="0.0150"/><circle cx="-0.0655" cy="0.0668" r="0.0150"/><circle cx="0.0921" cy="-0.1356" r="0.0150"/><circle cx="0.0701" cy="0.0222" r="0.0150"/><circle cx="0.0458" cy="0.0294" r="0.0150"/><circle cx="0.0701" cy="0.0255" r="0.0150"/><circle cx="0.0758" cy="0.1414" r="0.0150"/><circle cx="0.1286" cy="-0.0887" r="0.0150"/><circle cx="-0.0249" cy="0.0898" r="0.0150"/><circle cx="-0.0330" cy="0.1117" r="0.0150"/><circle cx="0.4935" cy="-0.0837" r="0.0150"/><circle cx="0.0864" cy="0.0600" r="0.0150"/><circle cx="0.1100" cy="0.0744" r="0.0150"/><circle cx="-0.0428" cy="0.0847" r="0.0150"/><circle cx="-0.2451" cy="0.1396" r="0.0150"/><circle cx="0.2440" cy="0.1096" r="0.0150"/><circle cx="-0.1931" cy="0.1319" r="0.0150"/><circle cx="0.2871" cy="-0.0928" r="0.0150"/><circle cx="0.3050" cy="-0.0773" r="0.0150"/><circle cx="0.5528" cy="0.1697" r="0.0150"/><circle cx="0.1774" cy="0.1407" r="0.0150"/><circle cx="0.3700" cy="0.1593" r="0.0150"/><circle cx="-0.0517" cy="0.1588" r="0.0150"/><circle cx="-0.2264" cy="0.1726" r="0.0150"/><circle cx="0.0766" cy="0.1983" r="0.0150"/><circle cx="0.0766" cy="0.1407" r="0.0150"/><circle cx="-0.1387" cy="-0.0142" r="0.0150"/><circle cx="-0.0022" cy="0.1614" r="0.0150"/><circle cx="0.3513" cy="0.0159" r="0.0150"/><circle cx="-0.0127" cy="0.0692" r="0.0150"/><circle cx="0.1790" cy="-0.1416" r="0.0150"/><circle cx="0.3358" cy="0.0849" r="0.0150"/><circle cx="-0.1915" cy="0.0256" r="0.0150"/><circle cx="0.1173" cy="0.0268" r="0.0150"/><circle cx="0.0190" cy="0.2053" r="0.0150"/><circle cx="0.1538" cy="0.2183" r="0.0150"/><circle cx="0.1904" cy="0.0761" r="0.0150"/><circle cx="0.1676" cy="0.2713" r="0.0150"/><circle cx="0.1043" cy="0.2439" r="0.0150"/><circle cx="0.1148" cy="-0.0024" r="0.0150"/><circle cx="0.0718" cy="0.2847" r="0.0150"/><circle cx="0.0685" cy="-0.0290" r="0.0150"/><circle cx="0.1286" cy="0.1374" r="0.0150"/><circle cx="0.3870" cy="0.0458" r="0.0150"/><circle cx="-0.0810" cy="0.0782" r="0.0150"/><circle cx="0.1319" cy="0.0286" r="0.0150"/><circle cx="-0.1866" cy="0.1237" r="0.0150"/><circle cx="0.2473" cy="0.0526" r="0.0150"/><circle cx="0.0084" cy="0.0775" r="0.0150"/><circle cx="-0.1054" cy="0.1030" r="0.0150"/><circle cx="0.2075" cy="-0.0164" r="0.0150"/><circle cx="0.3496" cy="0.0512" r="0.0150"/><circle cx="0.1360" cy="0.0661" r="0.0150"/><circle cx="0.0287" cy="0.2139" r="0.0150"/><circle cx="-0.0818" cy="0.0793" r="0.0150"/><circle cx="0.0230" cy="-0.0147" r="0.0150"/><circle cx="0.2383" cy="0.0252" r="0.0150"/><circle cx="0.1896" cy="0.0480" r="0.0150"/><circle cx="0.1741" cy="-0.0062" r="0.0150"/><circle cx="0.1238" cy="0.2019" r="0.0150"/><circle cx="0.1091" cy="0.0588" r="0.0150"/><circle cx="0.1725" cy="0.1830" r="0.0150"/><circle cx="0.2302" cy="0.0495" r="0.0150"/><circle cx="0.0303" cy="-0.1383" r="0.0150"/><circle cx="-0.2874" cy="0.0371" r="0.0150"/><circle cx="-0.2662" cy="0.2200" r="0.0150"/><circle cx="-0.0932" cy="-0.0018" r="0.0150"/><circle cx="0.0921" cy="0.1221" r="0.0150"/><circle cx="0.3358" cy="-0.0564" r="0.0150"/><circle cx="0.3131" cy="0.0729" r="0.0150"/><circle cx="-0.0501" cy="0.1176" r="0.0150"/><circle cx="0.3358" cy="0.2674" r="0.0150"/><circle cx="0.0978" cy="0.1522" r="0.0150"/><circle cx="-0.0599" cy="0.2393" r="0.0150"/><circle cx="0.0937" cy="0.0740" r="0.0150"/><circle cx="0.1059" cy="0.0714" r="0.0150"/><circle cx="0.1270" cy="-0.1114" r="0.0150"/><circle cx="0.0726" cy="0.1256" r="0.0150"/><circle cx="0.1286" cy="0.2971" r="0.0150"/><circle cx="0.2286" cy="0.2395" r="0.0150"/><circle cx="0.1278" cy="0.0923" r="0.0150"/><circle cx="0.0051" cy="0.1535" r="0.0150"/><circle cx="-0.0558" cy="0.2655" r="0.0150"/><circle cx="0.2001" cy="0.0604" r="0.0150"/><circle cx="0.2278" cy="0.0883" r="0.0150"/><circle cx="0.1774" cy="0.1385" r="0.0150"/><circle cx="0.0970" cy="0.0904" r="0.0150"/><circle cx="0.1360" cy="0.1515" r="0.0150"/><circle cx="0.0084" cy="0.0624" r="0.0150"/><circle cx="0.1457" cy="0.1436" r="0.0150"/><circle cx="0.0133" cy="0.0649" r="0.0150"/><circle cx="-0.0144" cy="0.0228" r="0.0150"/><circle cx="-0.1565" cy="0.1999" r="0.0150"/><circle cx="0.2611" cy="-0.0758" r="0.0150"/><circle cx="0.0100" cy="-0.0838" r="0.0150"/><circle cx="0.0060" cy="-0.0092" r="0.0150"/><circle cx="0.1002" cy="0.0804" r="0.0150"/><circle cx="-0.1492" cy="-0.1283" r="0.0150"/><circle cx="-0.1565" cy="0.1947" r="0.0150"/><circle cx="0.2205" cy="0.0471" r="0.0150"/><circle cx="0.0092" cy="0.1228" r="0.0150"/><circle cx="0.1319" cy="0.2824" r="0.0150"/><circle cx="-0.0550" cy="0.0799" r="0.0150"/><circle cx="-0.0265" cy="-0.0936" r="0.0150"/><circle cx="0.0921" cy="-0.0492" r="0.0150"/><circle cx="-0.0688" cy="0.2061" r="0.0150"/><circle cx="0.3895" cy="-0.0661" r="0.0150"/><circle cx="0.1051" cy="0.0300" r="0.0150"/><circle cx="-0.2264" cy="0.0300" r="0.0150"/><circle cx="-0.0493" cy="0.0455" r="0.0150"/><circle cx="0.1701" cy="0.0907" r="0.0150"/><circle cx="-0.1663" cy="0.1227" r="0.0150"/><circle cx="0.2115" cy="0.0187" r="0.0150"/><circle cx="0.1961" cy="-0.1163" r="0.0150"/><circle cx="0.2960" cy="0.1937" r="0.0150"/><circle cx="0.1311" cy="0.0956" r="0.0150"/><circle cx="0.0571" cy="0.0803" r="0.0150"/><circle cx="0.0295" cy="-0.0085" r="0.0150"/><circle cx="0.2554" cy="0.0624" r="0.0150"/><circle cx="0.1806" cy="-0.0034" r="0.0150"/><circle cx="0.2391" cy="0.1521" r="0.0150"/><circle cx="0.0742" cy="0.2649" r="0.0150"/><circle cx="-0.0379" cy="0.1393" r="0.0150"/><circle cx="0.3415" cy="0.1119" r="0.0150"/><circle cx="0.1213" cy="0.2428" r="0.0150"/><circle cx="0.1156" cy="0.1234" r="0.0150"/><circle cx="0.0190" cy="0.0394" r="0.0150"/><circle cx="0.0295" cy="-0.0306" r="0.0150"/><circle cx="0.1725" cy="0.1407" r="0.0150"/><circle cx="-0.2443" cy="-0.0405" r="0.0150"/><circle cx="0.5577" cy="0.0698" r="0.0150"/><circle cx="-0.0534" cy="0.2421" r="0.0150"/><circle cx="0.1156" cy="0.1328" r="0.0150"/><circle cx="-0.0582" cy="0.0480" r="0.0150"/><circle cx="-0.0745" cy="0.1956" r="0.0150"/><circle cx="0.3496" cy="-0.1240" r="0.0150"/><circle cx="0.3253" cy="0.1056" r="0.0150"/><circle cx="0.1555" cy="0.0878" r="0.0150"/><circle cx="0.0856" cy="-0.0648" r="0.0150"/><circle cx="0.1059" cy="-0.0300" r="0.0150"/><circle cx="0.0653" cy="-0.1142" r="0.0150"/><circle cx="0.2205" cy="0.0981" r="0.0150"/><circle cx="0.2586" cy="0.0406" r="0.0150"/><circle cx="0.2562" cy="0.0049" r="0.0150"/><circle cx="0.1538" cy="-0.0403" r="0.0150"/><circle cx="0.1498" cy="-0.1122" r="0.0150"/><circle cx="0.3050" cy="-0.1219" r="0.0150"/><circle cx="-0.3199" cy="-0.0780" r="0.0150"/><circle cx="-0.0054" cy="0.0681" r="0.0150"/><circle cx="-0.0867" cy="0.1592" r="0.0150"/><circle cx="0.2822" cy="0.1018" r="0.0150"/><circle cx="0.1880" cy="0.1088" r="0.0150"/><circle cx="0.0320" cy="0.0199" r="0.0150"/><circle cx="0.0571" cy="0.0374" r="0.0150"/><circle cx="-0.1330" cy="0.1092" r="0.0150"/><circle cx="0.0750" cy="0.0496" r="0.0150"/><circle cx="0.0043" cy="0.0632" r="0.0150"/><circle cx="0.4268" cy="-0.0447" r="0.0150"/><circle cx="0.0125" cy="0.2634" r="0.0150"/><circle cx="0.1912" cy="0.2258" r="0.0150"/><circle cx="-0.0290" cy="0.0541" r="0.0150"/><circle cx="0.2408" cy="-0.0762" r="0.0150"/><circle cx="0.1603" cy="0.1291" r="0.0150"/><circle cx="-0.1834" cy="0.0546" r="0.0150"/><circle cx="0.0181" cy="0.0951" r="0.0150"/><circle cx="-0.0712" cy="0.0777" r="0.0150"/><circle cx="0.1091" cy="0.0622" r="0.0150"/><circle cx="0.0791" cy="0.0803" r="0.0150"/><circle cx="0.0116" cy="0.1660" r="0.0150"/><circle cx="0.1051" cy="0.0751" r="0.0150"/><circle cx="-0.1143" cy="0.1514" r="0.0150"/><circle cx="-0.1972" cy="0.0587" r="0.0150"/><circle cx="0.0125" cy="-0.0632" r="0.0150"/><circle cx="0.3228" cy="0.2198" r="0.0150"/><circle cx="0.1758" cy="-0.1024" r="0.0150"/><circle cx="0.0896" cy="0.0417" r="0.0150"/><circle cx="0.4155" cy="0.1232" r="0.0150"/><circle cx="0.3391" cy="-0.1239" r="0.0150"/><circle cx="0.0385" cy="-0.0505" r="0.0150"/><circle cx="-0.0144" cy="0.2139" r="0.0150"/><circle cx="-0.2272" cy="-0.0830" r="0.0150"/><circle cx="0.0701" cy="-0.0023" r="0.0150"/><circle cx="0.0060" cy="-0.0037" r="0.0150"/><circle cx="0.1376" cy="-0.0842" r="0.0150"/><circle cx="-0.0160" cy="0.1792" r="0.0150"/><circle cx="-0.0257" cy="-0.0183" r="0.0150"/><circle cx="0.2497" cy="-0.0608" r="0.0150"/><circle cx="-0.2443" cy="0.0519" r="0.0150"/><circle cx="0.2066" cy="0.1528" r="0.0150"/><circle cx="-0.0135" cy="0.2678" r="0.0150"/><circle cx="-0.1305" cy="-0.1116" r="0.0150"/><circle cx="0.2408" cy="-0.0539" r="0.0150"/><circle cx="-0.2451" cy="-0.0583" r="0.0150"/><circle cx="-0.0680" cy="0.0122" r="0.0150"/><circle cx="-0.1265" cy="0.0616" r="0.0150"/><circle cx="0.2196" cy="0.0599" r="0.0150"/><circle cx="0.0710" cy="0.0832" r="0.0150"/><circle cx="0.1108" cy="0.1092" r="0.0150"/><circle cx="0.3391" cy="0.1227" r="0.0150"/><circle cx="0.0986" cy="-0.0363" r="0.0150"/><circle cx="0.1928" cy="0.1176" r="0.0150"/><circle cx="0.1953" cy="0.1711" r="0.0150"/><circle cx="0.2538" cy="0.0363" r="0.0150"/><circle cx="0.0888" cy="-0.0662" r="0.0150"/><circle cx="0.3033" cy="0.2858" r="0.0150"/><circle cx="0.0612" cy="0.0632" r="0.0150"/><circle cx="0.0612" cy="0.0567" r="0.0150"/><circle cx="0.0677" cy="0.1029" r="0.0150"/><circle cx="0.1506" cy="-0.0370" r="0.0150"/><circle cx="0.2489" cy="-0.1613" r="0.0150"/><circle cx="0.3740" cy="-0.0798" r="0.0150"/><circle cx="0.0108" cy="0.0905" r="0.0150"/><circle cx="0.1392" cy="0.0206" r="0.0150"/><circle cx="0.2757" cy="0.1011" r="0.0150"/><circle cx="-0.1062" cy="-0.0364" r="0.0150"/><circle cx="-0.2045" cy="0.1647" r="0.0150"/><circle cx="-0.1249" cy="0.2123" r="0.0150"/><circle cx="0.2213" cy="-0.1646" r="0.0150"/><circle cx="-0.0095" cy="0.1573" r="0.0150"/><circle cx="0.3976" cy="0.1809" r="0.0150"/><circle cx="0.4602" cy="-0.1328" r="0.0150"/><circle cx="0.2075" cy="0.1929" r="0.0150"/><circle cx="-0.0030" cy="-0.0372" r="0.0150"/><circle cx="0.2465" cy="0.0579" r="0.0150"/><circle cx="-0.0590" cy="0.0444" r="0.0150"/><circle cx="-0.0379" cy="0.0426" r="0.0150"/><circle cx="0.1002" cy="0.0342" r="0.0150"/><circle cx="0.1652" cy="-0.0619" r="0.0150"/><circle cx="0.2538" cy="0.0267" r="0.0150"/><circle cx="0.0401" cy="-0.1461" r="0.0150"/><circle cx="-0.0460" cy="0.0268" r="0.0150"/><circle cx="-0.0290" cy="0.1199" r="0.0150"/><circle cx="0.1059" cy="0.1954" r="0.0150"/><circle cx="-0.1850" cy="0.0420" r="0.0150"/><circle cx="0.4512" cy="0.1792" r="0.0150"/><circle cx="-0.2094" cy="-0.0085" r="0.0150"/><circle cx="0.0628" cy="-0.1093" r="0.0150"/><circle cx="0.1506" cy="0.2916" r="0.0150"/><circle cx="-0.0550" cy="0.1545" r="0.0150"/><circle cx="0.2221" cy="0.0413" r="0.0150"/><circle cx="-0.0005" cy="0.0789" r="0.0150"/><circle cx="0.2814" cy="0.0739" r="0.0150"/><circle cx="0.2440" cy="0.0763" r="0.0150"/><circle cx="0.2310" cy="-0.0587" r="0.0150"/><circle cx="-0.0777" cy="-0.0532" r="0.0150"/><circle cx="0.3033" cy="-0.0235" r="0.0150"/><circle cx="-0.1127" cy="-0.1381" r="0.0150"/><circle cx="0.3846" cy="-0.0398" r="0.0150"/><circle cx="0.0929" cy="0.1088" r="0.0150"/><circle cx="0.1173" cy="0.0284" r="0.0150"/><circle cx="-0.0907" cy="-0.0552" r="0.0150"/><circle cx="0.1603" cy="0.0906" r="0.0150"/><circle cx="0.0458" cy="0.0767" r="0.0150"/><circle cx="0.0328" cy="-0.0673" r="0.0150"/><circle cx="0.2538" cy="0.1649" r="0.0150"/><circle cx="0.2700" cy="0.0343" r="0.0150"/><circle cx="0.0766" cy="0.0726" r="0.0150"/><circle cx="0.1571" cy="0.0312" r="0.0150"/><circle cx="-0.0249" cy="-0.1079" r="0.0150"/><circle cx="0.1945" cy="-0.0647" r="0.0150"/><circle cx="-0.2638" cy="0.1287" r="0.0150"/><circle cx="-0.0517" cy="0.0692" r="0.0150"/><circle cx="0.0791" cy="0.2670" r="0.0150"/><circle cx="0.0685" cy="0.0268" r="0.0150"/><circle cx="0.0084" cy="-0.1057" r="0.0150"/><circle cx="-0.1054" cy="0.0024" r="0.0150"/><circle cx="-0.2272" cy="0.0771" r="0.0150"/><circle cx="0.1230" cy="0.2106" r="0.0150"/><circle cx="0.2554" cy="0.0659" r="0.0150"/><circle cx="-0.0436" cy="-0.0453" r="0.0150"/><circle cx="-0.1639" cy="0.1251" r="0.0150"/><circle cx="0.0393" cy="0.2620" r="0.0150"/><circle cx="-0.1135" cy="-0.1242" r="0.0150"/><circle cx="0.1611" cy="0.1452" r="0.0150"/><circle cx="0.1563" cy="0.2075" r="0.0150"/><circle cx="0.0766" cy="0.0592" r="0.0150"/><circle cx="0.3334" cy="0.2675" r="0.0150"/><circle cx="0.0628" cy="0.1050" r="0.0150"/><circle cx="0.0141" cy="-0.0758" r="0.0150"/><circle cx="0.2026" cy="0.2106" r="0.0150"/><circle cx="0.2586" cy="0.0781" r="0.0150"/><circle cx="0.0523" cy="0.1714" r="0.0150"/><circle cx="-0.0517" cy="0.0240" r="0.0150"/><circle cx="0.3180" cy="0.0816" r="0.0150"/><circle cx="0.3496" cy="0.1824" r="0.0150"/><circle cx="-0.1834" cy="0.2749" r="0.0150"/><circle cx="-0.0542" cy="0.0441" r="0.0150"/><circle cx="0.4147" cy="0.0623" r="0.0150"/><circle cx="0.2733" cy="0.1911" r="0.0150"/><circle cx="0.2538" cy="0.2814" r="0.0150"/><circle cx="-0.1972" cy="0.1094" r="0.0150"/><circle cx="0.0125" cy="0.0562" r="0.0150"/><circle cx="0.0271" cy="-0.1226" r="0.0150"/><circle cx="-0.0233" cy="0.0472" r="0.0150"/><circle cx="0.1051" cy="0.0729" r="0.0150"/><circle cx="0.0133" cy="0.0221" r="0.0150"/><circle cx="-0.0030" cy="0.2556" r="0.0150"/><circle cx="0.3895" cy="-0.0459" r="0.0150"/><circle cx="0.0726" cy="0.0255" r="0.0150"/><circle cx="0.2578" cy="0.1075" r="0.0150"/><circle cx="0.2822" cy="0.0972" r="0.0150"/><circle cx="0.3115" cy="-0.0400" r="0.0150"/><circle cx="0.1051" cy="0.1380" r="0.0150"/><circle cx="0.0840" cy="0.0333" r="0.0150"/><circle cx="-0.0680" cy="0.2981" r="0.0150"/><circle cx="0.3561" cy="0.0967" r="0.0150"/><circle cx="0.0766" cy="0.1697" r="0.0150"/><circle cx="0.0742" cy="0.1435" r="0.0150"/><circle cx="0.0051" cy="0.0755" r="0.0150"/><circle cx="0.0970" cy="-0.0092" r="0.0150"/><circle cx="-0.0997" cy="0.0470" r="0.0150"/><circle cx="0.0807" cy="-0.0735" r="0.0150"/><circle cx="0.2058" cy="-0.0532" r="0.0150"/><circle cx="0.1611" cy="0.1555" r="0.0150"/><circle cx="0.4138" cy="0.1974" r="0.0150"/><circle cx="0.3423" cy="0.0913" r="0.0150"/><circle cx="-0.1850" cy="-0.0079" r="0.0150"/><circle cx="0.0710" cy="0.0267" r="0.0150"/><circle cx="0.1221" cy="-0.0811" r="0.0150"/><circle cx="0.0766" cy="0.0066" r="0.0150"/><circle cx="0.1465" cy="0.1455" r="0.0150"/><circle cx="0.1465" cy="0.0133" r="0.0150"/><circle cx="-0.0485" cy="-0.0777" r="0.0150"/><circle cx="-0.0412" cy="0.0293" r="0.0150"/><circle cx="-0.0014" cy="-0.0358" r="0.0150"/><circle cx="-0.0525" cy="0.1738" r="0.0150"/><circle cx="0.2221" cy="0.1165" r="0.0150"/><circle cx="0.4488" cy="0.0471" r="0.0150"/><circle cx="0.2611" cy="-0.1371" r="0.0150"/><circle cx="0.3033" cy="-0.0932" r="0.0150"/><circle cx="-0.0014" cy="0.0255" r="0.0150"/><circle cx="0.0515" cy="-0.0769" r="0.0150"/><circle cx="-0.1639" cy="-0.0099" r="0.0150"/><circle cx="0.3903" cy="-0.0496" r="0.0150"/><circle cx="0.2473" cy="0.1407" r="0.0150"/><circle cx="0.0628" cy="-0.1104" r="0.0150"/><circle cx="0.2838" cy="0.1844" r="0.0150"/><circle cx="0.0230" cy="0.0729" r="0.0150"/><circle cx="0.0888" cy="0.2197" r="0.0150"/><circle cx="0.0677" cy="0.2146" r="0.0150"/><circle cx="0.2066" cy="0.2370" r="0.0150"/><circle cx="0.1303" cy="-0.0338" r="0.0150"/><circle cx="0.0125" cy="-0.0857" r="0.0150"/><circle cx="-0.1500" cy="0.0495" r="0.0150"/><circle cx="0.2205" cy="0.1573" r="0.0150"/><circle cx="-0.0777" cy="0.2200" r="0.0150"/><circle cx="0.1538" cy="-0.0907" r="0.0150"/><circle cx="-0.0712" cy="0.1045" r="0.0150"/><circle cx="0.0612" cy="0.0433" r="0.0150"/><circle cx="0.0799" cy="0.1466" r="0.0150"/><circle cx="0.0320" cy="0.0999" r="0.0150"/><circle cx="-0.0054" cy="-0.1195" r="0.0150"/><circle cx="-0.1476" cy="0.0737" r="0.0150"/><circle cx="0.1815" cy="-0.0906" r="0.0150"/><circle cx="-0.0558" cy="0.0452" r="0.0150"/><circle cx="0.0352" cy="-0.0683" r="0.0150"/><circle cx="0.0799" cy="0.0726" r="0.0150"/><circle cx="0.3131" cy="0.0698" r="0.0150"/><circle cx="0.1408" cy="0.1900" r="0.0150"/><circle cx="0.0474" cy="0.1045" r="0.0150"/><circle cx="0.1433" cy="0.2046" r="0.0150"/><circle cx="0.0750" cy="0.0579" r="0.0150"/><circle cx="-0.1769" cy="-0.0478" r="0.0150"/><circle cx="-0.3499" cy="-0.0413" r="0.0150"/><circle cx="0.0401" cy="0.1862" r="0.0150"/><circle cx="-0.0339" cy="0.1271" r="0.0150"/><circle cx="0.2375" cy="0.1413" r="0.0150"/><circle cx="-0.1460" cy="0.1516" r="0.0150"/><circle cx="0.4090" cy="0.1043" r="0.0150"/><circle cx="0.0165" cy="0.0547" r="0.0150"/><circle cx="0.2034" cy="-0.0067" r="0.0150"/><circle cx="0.3700" cy="-0.0927" r="0.0150"/><circle cx="-0.0753" cy="0.2706" r="0.0150"/><circle cx="-0.1021" cy="0.1863" r="0.0150"/><circle cx="0.0173" cy="0.0597" r="0.0150"/><circle cx="0.1782" cy="0.0585" r="0.0150"/><circle cx="0.3496" cy="0.2229" r="0.0150"/><circle cx="-0.2492" cy="0.2829" r="0.0150"/><circle cx="-0.0964" cy="0.1500" r="0.0150"/><circle cx="-0.1574" cy="0.1131" r="0.0150"/><circle cx="0.3066" cy="0.2590" r="0.0150"/><circle cx="0.2562" cy="0.1596" r="0.0150"/><circle cx="0.3001" cy="0.2114" r="0.0150"/><circle cx="0.1563" cy="0.0428" r="0.0150"/><circle cx="-0.0135" cy="0.0932" r="0.0150"/><circle cx="0.0206" cy="0.1188" r="0.0150"/><circle cx="0.2091" cy="0.0843" r="0.0150"/><circle cx="-0.0647" cy="0.1028" r="0.0150"/><circle cx="0.1083" cy="0.0728" r="0.0150"/><circle cx="0.2229" cy="-0.1596" r="0.0150"/><circle cx="0.0271" cy="0.1013" r="0.0150"/><circle cx="-0.2662" cy="0.1675" r="0.0150"/><circle cx="-0.0582" cy="0.1985" r="0.0150"/><circle cx="0.3310" cy="-0.0887" r="0.0150"/><circle cx="0.2196" cy="0.0253" r="0.0150"/><circle cx="0.3895" cy="0.0668" r="0.0150"/><circle cx="0.1343" cy="0.0543" r="0.0150"/><circle cx="0.1327" cy="0.1224" r="0.0150"/><circle cx="0.2261" cy="0.0267" r="0.0150"/><circle cx="0.0368" cy="0.0600" r="0.0150"/><circle cx="0.1416" cy="0.0812" r="0.0150"/><circle cx="0.0165" cy="0.0444" r="0.0150"/><circle cx="-0.0907" cy="0.2552" r="0.0150"/><circle cx="-0.0574" cy="0.0211" r="0.0150"/><circle cx="0.1685" cy="0.0764" r="0.0150"/><circle cx="0.0693" cy="-0.0082" r="0.0150"/><circle cx="0.0515" cy="0.0932" r="0.0150"/><circle cx="0.1173" cy="-0.0522" r="0.0150"/><circle cx="0.1091" cy="0.0512" r="0.0150"/><circle cx="-0.0257" cy="0.2645" r="0.0150"/><circle cx="0.3399" cy="0.0628" r="0.0150"/><circle cx="-0.1370" cy="0.0217" r="0.0150"/><circle cx="0.2050" cy="0.1118" r="0.0150"/><circle cx="0.2725" cy="0.1825" r="0.0150"/><circle cx="-0.1062" cy="0.0266" r="0.0150"/><circle cx="0.1416" cy="-0.0544" r="0.0150"/><circle cx="0.2034" cy="0.1569" r="0.0150"/><circle cx="0.0807" cy="-0.0197" r="0.0150"/><circle cx="0.1148" cy="-0.0346" r="0.0150"/><circle cx="0.1733" cy="-0.0259" r="0.0150"/><circle cx="0.0953" cy="0.0602" r="0.0150"/><circle cx="0.1563" cy="0.1226" r="0.0150"/><circle cx="0.0238" cy="0.1848" r="0.0150"/><circle cx="-0.1639" cy="-0.0428" r="0.0150"/><circle cx="0.1002" cy="0.1154" r="0.0150"/><circle cx="0.0937" cy="-0.1060" r="0.0150"/><circle cx="0.0921" cy="0.2814" r="0.0150"/><circle cx="0.1449" cy="0.1227" r="0.0150"/><circle cx="0.1555" cy="0.0642" r="0.0150"/><circle cx="0.1116" cy="0.0612" r="0.0150"/><circle cx="-0.1825" cy="0.1069" r="0.0150"/><circle cx="-0.1370" cy="0.0986" r="0.0150"/><circle cx="0.2465" cy="-0.0624" r="0.0150"/><circle cx="0.2578" cy="0.1290" r="0.0150"/><circle cx="-0.1663" cy="0.0420" r="0.0150"/><circle cx="0.0612" cy="-0.0453" r="0.0150"/><circle cx="0.0921" cy="0.2313" r="0.0150"/><circle cx="-0.0777" cy="0.0525" r="0.0150"/><circle cx="0.3553" cy="0.0442" r="0.0150"/><circle cx="0.1961" cy="0.1627" r="0.0150"/><circle cx="0.0368" cy="-0.0550" r="0.0150"/><circle cx="-0.1143" cy="0.1654" r="0.0150"/><circle cx="-0.0550" cy="0.0268" r="0.0150"/><circle cx="-0.2094" cy="0.2434" r="0.0150"/><circle cx="0.0255" cy="0.1483" r="0.0150"/><circle cx="0.2497" cy="-0.0822" r="0.0150"/><circle cx="-0.0038" cy="-0.0057" r="0.0150"/><circle cx="0.0352" cy="0.0829" r="0.0150"/><circle cx="0.1360" cy="0.1458" r="0.0150"/><circle cx="0.1441" cy="0.0486" r="0.0150"/><circle cx="0.0929" cy="0.0851" r="0.0150"/><circle cx="0.1961" cy="0.0406" r="0.0150"/><circle cx="0.1059" cy="0.1228" r="0.0150"/><circle cx="0.0921" cy="-0.0106" r="0.0150"/><circle cx="0.2505" cy="0.2781" r="0.0150"/><circle cx="-0.0842" cy="0.2235" r="0.0150"/><circle cx="0.0961" cy="0.1490" r="0.0150"/><circle cx="0.2448" cy="0.1315" r="0.0150"/><circle cx="-0.2020" cy="0.2410" r="0.0150"/><circle cx="0.0758" cy="0.1402" r="0.0150"/><circle cx="0.2221" cy="0.1441" r="0.0150"/><circle cx="-0.0729" cy="0.0318" r="0.0150"/><circle cx="0.0718" cy="-0.0925" r="0.0150"/><circle cx="-0.1143" cy="0.1051" r="0.0150"/><circle cx="0.0791" cy="-0.0553" r="0.0150"/><circle cx="0.1457" cy="0.0754" r="0.0150"/><circle cx="-0.0460" cy="0.2876" r="0.0150"/><circle cx="0.3513" cy="0.0899" r="0.0150"/><circle cx="-0.0631" cy="0.1230" r="0.0150"/><circle cx="0.1108" cy="0.2531" r="0.0150"/><circle cx="0.1189" cy="0.2167" r="0.0150"/><circle cx="0.2465" cy="0.0569" r="0.0150"/><circle cx="0.0181" cy="0.0894" r="0.0150"/><circle cx="0.2562" cy="0.0690" r="0.0150"/><circle cx="-0.1964" cy="0.1121" r="0.0150"/><circle cx="0.1514" cy="-0.0185" r="0.0150"/><circle cx="-0.0915" cy="-0.0905" r="0.0150"/><circle cx="0.1213" cy="-0.0292" r="0.0150"/><circle cx="0.0051" cy="0.1545" r="0.0150"/><circle cx="0.1181" cy="-0.0145" r="0.0150"/><circle cx="0.1238" cy="-0.0871" r="0.0150"/><circle cx="0.5698" cy="0.0981" r="0.0150"/><circle cx="-0.1159" cy="-0.0024" r="0.0150"/><circle cx="0.2513" cy="0.0310" r="0.0150"/><circle cx="-0.0615" cy="0.1670" r="0.0150"/><circle cx="0.2196" cy="-0.0310" r="0.0150"/><circle cx="0.1595" cy="-0.0590" r="0.0150"/><circle cx="0.0896" cy="0.1729" r="0.0150"/><circle cx="0.3529" cy="0.0707" r="0.0150"/><circle cx="0.3017" cy="-0.0933" r="0.0150"/><circle cx="0.0750" cy="0.1226" r="0.0150"/><circle cx="0.1327" cy="-0.1556" r="0.0150"/><circle cx="-0.1411" cy="0.1088" r="0.0150"/><circle cx="0.1360" cy="0.2982" r="0.0150"/><circle cx="0.0108" cy="0.2120" r="0.0150"/><circle cx="0.0888" cy="0.0963" r="0.0150"/><circle cx="0.1181" cy="0.1959" r="0.0150"/><circle cx="-0.1037" cy="-0.0705" r="0.0150"/><circle cx="0.1311" cy="0.2942" r="0.0150"/><circle cx="0.0905" cy="0.1511" r="0.0150"/><circle cx="-0.0014" cy="0.0155" r="0.0150"/><circle cx="0.0320" cy="0.0145" r="0.0150"/><circle cx="-0.2817" cy="-0.0178" r="0.0150"/><circle cx="0.1652" cy="0.0410" r="0.0150"/><circle cx="0.0368" cy="0.0982" r="0.0150"/><circle cx="-0.0794" cy="0.1639" r="0.0150"/><circle cx="0.0693" cy="0.1013" r="0.0150"/><circle cx="0.1847" cy="0.0878" r="0.0150"/><circle cx="-0.0290" cy="0.1496" r="0.0150"/><circle cx="0.3236" cy="0.0570" r="0.0150"/><circle cx="0.1571" cy="0.1899" r="0.0150"/><circle cx="0.0125" cy="0.1128" r="0.0150"/><circle cx="0.2278" cy="0.0285" r="0.0150"/><circle cx="0.3651" cy="0.0808" r="0.0150"/><circle cx="-0.0753" cy="-0.0015" r="0.0150"/><circle cx="0.1815" cy="0.1303" r="0.0150"/><circle cx="0.3074" cy="0.0955" r="0.0150"/><circle cx="0.1189" cy="0.1238" r="0.0150"/><circle cx="-0.1419" cy="0.1402" r="0.0150"/><circle cx="0.1490" cy="0.1884" r="0.0150"/><circle cx="0.0011" cy="-0.0323" r="0.0150"/><circle cx="0.3407" cy="0.2290" r="0.0150"/><circle cx="-0.0534" cy="0.0428" r="0.0150"/><circle cx="-0.1078" cy="0.2730" r="0.0150"/><circle cx="0.1628" cy="0.1893" r="0.0150"/><circle cx="0.1059" cy="0.1473" r="0.0150"/><circle cx="0.2578" cy="0.0371" r="0.0150"/><circle cx="0.2050" cy="0.2349" r="0.0150"/><circle cx="0.0775" cy="-0.0936" r="0.0150"/><circle cx="-0.1273" cy="0.1619" r="0.0150"/><circle cx="0.2741" cy="0.1121" r="0.0150"/><circle cx="0.1010" cy="0.0812" r="0.0150"/><circle cx="0.4285" cy="0.2846" r="0.0150"/><circle cx="0.1026" cy="0.2044" r="0.0150"/><circle cx="0.2611" cy="-0.0646" r="0.0150"/><circle cx="0.0775" cy="0.0779" r="0.0150"/><circle cx="0.3561" cy="-0.0898" r="0.0150"/><circle cx="-0.0314" cy="0.2673" r="0.0150"/><circle cx="-0.1240" cy="0.0222" r="0.0150"/><circle cx="-0.2297" cy="0.0750" r="0.0150"/><circle cx="-0.0209" cy="-0.1363" r="0.0150"/><circle cx="0.0799" cy="-0.0194" r="0.0150"/><circle cx="0.5089" cy="-0.0947" r="0.0150"/><circle cx="0.2034" cy="0.1475" r="0.0150"/><circle cx="0.1205" cy="-0.0836" r="0.0150"/><circle cx="0.0766" cy="0.0905" r="0.0150"/><circle cx="0.4228" cy="0.0843" r="0.0150"/><circle cx="0.3610" cy="0.1087" r="0.0150"/><circle cx="-0.2703" cy="0.0482" r="0.0150"/><circle cx="0.3667" cy="0.1226" r="0.0150"/><circle cx="0.2741" cy="0.2966" r="0.0150"/><circle cx="-0.1224" cy="0.1133" r="0.0150"/><circle cx="-0.0184" cy="-0.1585" r="0.0150"/><circle cx="0.0612" cy="0.1290" r="0.0150"/><circle cx="-0.0737" cy="0.1552" r="0.0150"/><circle cx="0.1384" cy="0.2233" r="0.0150"/><circle cx="-0.0932" cy="0.1955" r="0.0150"/><circle cx="0.3740" cy="0.0713" r="0.0150"/><circle cx="-0.1354" cy="0.1908" r="0.0150"/><circle cx="0.1847" cy="-0.0751" r="0.0150"/><circle cx="-0.0062" cy="0.1387" r="0.0150"/><circle cx="0.3375" cy="-0.0587" r="0.0150"/><circle cx="0.2083" cy="0.1031" r="0.0150"/><circle cx="-0.1931" cy="-0.0938" r="0.0150"/><circle cx="-0.0233" cy="-0.0067" r="0.0150"/><circle cx="0.4667" cy="-0.0918" r="0.0150"/><circle cx="-0.0014" cy="0.1276" r="0.0150"/><circle cx="0.0084" cy="0.0888" r="0.0150"/><circle cx="0.1108" cy="0.2553" r="0.0150"/><circle cx="-0.0095" cy="0.0505" r="0.0150"/><circle cx="-0.0282" cy="-0.0020" r="0.0150"/><circle cx="0.1181" cy="0.2536" r="0.0150"/><circle cx="0.2822" cy="-0.1032" r="0.0150"/><circle cx="-0.0306" cy="0.2929" r="0.0150"/><circle cx="0.2505" cy="0.0363" r="0.0150"/><circle cx="0.2343" cy="0.0376" r="0.0150"/><circle cx="0.0084" cy="0.2420" r="0.0150"/><circle cx="0.0799" cy="0.0134" r="0.0150"/><circle cx="0.2708" cy="0.0633" r="0.0150"/><circle cx="-0.0842" cy="0.0728" r="0.0150"/><circle cx="0.0198" cy="0.1131" r="0.0150"/><circle cx="0.1173" cy="0.1931" r="0.0150"/><circle cx="0.0068" cy="-0.0353" r="0.0150"/><circle cx="0.2562" cy="0.0402" r="0.0150"/><circle cx="0.3050" cy="0.2198" r="0.0150"/><circle cx="0.1758" cy="-0.0640" r="0.0150"/><circle cx="0.0498" cy="-0.0789" r="0.0150"/><circle cx="-0.0152" cy="0.2419" r="0.0150"/><circle cx="-0.0566" cy="0.1060" r="0.0150"/><circle cx="-0.0428" cy="0.0971" r="0.0150"/><circle cx="0.1116" cy="-0.0398" r="0.0150"/><circle cx="0.1091" cy="0.0163" r="0.0150"/><circle cx="-0.0038" cy="0.1517" r="0.0150"/><circle cx="0.1514" cy="0.0982" r="0.0150"/><circle cx="0.3228" cy="0.1468" r="0.0150"/><circle cx="-0.0014" cy="0.0919" r="0.0150"/><circle cx="0.1928" cy="0.1404" r="0.0150"/><circle cx="0.0880" cy="0.1003" r="0.0150"/><circle cx="-0.1907" cy="0.1522" r="0.0150"/><circle cx="0.1270" cy="-0.1078" r="0.0150"/><circle cx="0.1360" cy="0.0306" r="0.0150"/><circle cx="0.3895" cy="0.0889" r="0.0150"/><circle cx="-0.1184" cy="0.0875" r="0.0150"/><circle cx="0.0896" cy="-0.0100" r="0.0150"/><circle cx="0.1823" cy="0.0271" r="0.0150"/><circle cx="0.0693" cy="0.0246" r="0.0150"/><circle cx="-0.0363" cy="-0.0503" r="0.0150"/><circle cx="0.3204" cy="0.1048" r="0.0150"/><circle cx="0.1140" cy="0.0755" r="0.0150"/><circle cx="-0.0111" cy="0.1030" r="0.0150"/><circle cx="0.0831" cy="0.0674" r="0.0150"/><circle cx="0.2050" cy="0.0585" r="0.0150"/><circle cx="-0.0184" cy="-0.1098" r="0.0150"/><circle cx="0.1644" cy="0.2302" r="0.0150"/><circle cx="0.1262" cy="0.0311" r="0.0150"/><circle cx="0.1790" cy="-0.0095" r="0.0150"/><circle cx="0.1148" cy="0.1660" r="0.0150"/><circle cx="0.1555" cy="0.1877" r="0.0150"/><circle cx="0.0441" cy="0.2196" r="0.0150"/><circle cx="0.3854" cy="0.1035" r="0.0150"/></g></g><g class="datapadding"></g></g><g class="hud"><g class="frame"><g stroke-width="0" stroke="rgb(0%, 0%, 0%)" stroke-opacity="0" fill="rgb(100%, 100%, 100%)" fill-opacity="0.02"><rect width="1.1375" height="0.7644" x="-0.4360" y="-0.4536"/></g></g><g class="axis"><g class="axisbar"><g stroke-width="0" stroke="rgb(0%, 0%, 0%)" stroke-opacity="0" fill="rgb(5%, 5%, 5%)" fill-opacity="0.4"><rect width="1.1405" height="0.0030" x="-0.4376" y="0.3138"/></g></g><g class="ticks"><g class="ticklines"><g stroke-width="0.0050" stroke="rgb(5%, 5%, 5%)" stroke-opacity="0.05" fill="none"><polyline points="-0.4360,0.3062 -0.4360,-0.4536"/><polyline points="-0.2735,0.3062 -0.2735,-0.4536"/><polyline points="-0.1110,0.3062 -0.1110,-0.4536"/><polyline points="0.0515,0.3062 0.0515,-0.4536"/><polyline points="0.2140,0.3062 0.2140,-0.4536"/><polyline points="0.3765,0.3062 0.3765,-0.4536"/><polyline points="0.5390,0.3062 0.5390,-0.4536"/><polyline points="0.7015,0.3062 0.7015,-0.4536"/></g></g><g class="tickglyph"><g stroke-width="0.0030" stroke="rgb(5%, 5%, 5%)" stroke-opacity="0.4" fill="rgb(5%, 5%, 5%)" fill-opacity="0.4"><polyline points="-0.4360,0.3381
-0.4360,0.3153"/><polyline points="-0.2735,0.3381
-0.2735,0.3153"/><polyline points="-0.1110,0.3381
-0.1110,0.3153"/><polyline points="0.0515,0.3381
0.0515,0.3153"/><polyline points="0.2140,0.3381
0.2140,0.3153"/><polyline points="0.3765,0.3381
0.3765,0.3153"/><polyline points="0.5390,0.3381
0.5390,0.3153"/><polyline points="0.7015,0.3381
0.7015,0.3153"/></g></g><g class="ticktext"><g stroke-width="0.0" stroke="none" fill="rgb(5%, 5%, 5%)" fill-opacity="1.0" font-size="0.0400" text-anchor="middle"><text x="-0.4360" y="0.3799"> 6</text><text x="-0.2735" y="0.3799"> 8</text><text x="-0.1110" y="0.3799">10</text><text x="0.0515" y="0.3799">12</text><text x="0.2140" y="0.3799">14</text><text x="0.3765" y="0.3799">16</text><text x="0.5390" y="0.3799">18</text><text x="0.7015" y="0.3799">20</text></g></g></g></g><g class="axis"><g class="axisbar"><g stroke-width="0" stroke="rgb(0%, 0%, 0%)" stroke-opacity="0" fill="rgb(5%, 5%, 5%)" fill-opacity="0.4"><rect width="0.0030" height="0.7629" x="-0.4467" y="-0.4552"/></g></g><g class="ticks"><g class="ticklines"><g stroke-width="0.0050" stroke="rgb(5%, 5%, 5%)" stroke-opacity="0.05" fill="none"><polyline points="-0.4360,0.3062 0.7015,0.3062"/><polyline points="-0.4360,0.1543 0.7015,0.1543"/><polyline points="-0.4360,0.0023 0.7015,0.0023"/><polyline points="-0.4360,-0.1497 0.7015,-0.1497"/><polyline points="-0.4360,-0.3017 0.7015,-0.3017"/><polyline points="-0.4360,-0.4536 0.7015,-0.4536"/></g></g><g class="tickglyph"><g stroke-width="0.0030" stroke="rgb(5%, 5%, 5%)" stroke-opacity="0.4" fill="rgb(5%, 5%, 5%)" fill-opacity="0.4"><polyline points="-0.4679,0.3062
-0.4451,0.3062"/><polyline points="-0.4679,0.1543
-0.4451,0.1543"/><polyline points="-0.4679,0.0023
-0.4451,0.0023"/><polyline points="-0.4679,-0.1497
-0.4451,-0.1497"/><polyline points="-0.4679,-0.3017
-0.4451,-0.3017"/><polyline points="-0.4679,-0.4536
-0.4451,-0.4536"/></g></g><g class="ticktext"><g stroke-width="0.0" stroke="none" fill="rgb(5%, 5%, 5%)" fill-opacity="1.0" font-size="0.0400" text-anchor="end"><text x="-0.4846" y="0.3146">     0</text><text x="-0.4846" y="0.1626">10,000</text><text x="-0.4846" y="0.0106">20,000</text><text x="-0.4846" y="-0.1413">30,000</text><text x="-0.4846" y="-0.2933">40,000</text><text x="-0.4846" y="-0.4453">50,000</text></g></g></g></g><g class="title"><g stroke-width="0.0" stroke="none" fill="rgb(5%, 5%, 5%)" fill-opacity="1.0" font-size="0.0600" text-anchor="middle"><text x="-0.6833" y="-0.0403" transform="rotate(-90.0, -0.6833, -0.0403)">loan_amount</text></g></g><g class="title"><g stroke-width="0.0" stroke="none" fill="rgb(5%, 5%, 5%)" fill-opacity="1.0" font-size="0.0600" text-anchor="middle"><text x="0.0629" y="0.4559">interest_rate</text></g></g><g class="frame"><g stroke-width="0" stroke="rgb(0%, 0%, 0%)" stroke-opacity="0" fill="rgb(0%, 0%, 0%)" fill-opacity="0"><rect width="1.5" height="1.0" x="-0.75" y="-0.5"/></g></g></g></svg>