<svg xmlns="http://www.w3.org/2000/svg" xmlns:xlink="http://www.w3.org/1999/xlink" width="450" height="300" viewBox="-0.75 -0.5 1.5 1.0"><style>svg {
  color-scheme: light dark;
}
{
  .canvas g, .title g, .axisbar g, .ticktext g, .tickglyph g, .ticklines g, .legendContent g text {
    fill: rgb(5%, 5%, 5%);
  }
  .ticklines g, .tickglyph g, .legendBorder g {
    stroke: rgb(5%, 5%, 5%);
  }
  .legendBorder g {
    fill: rgb(94%, 94%, 94%);
  }
}
@media (prefers-color-scheme:dark) {
  .canvas g, .title g, .axisbar g, .ticktext g, .tickglyph g, .ticklines g, .legendContent g text {
    fill: rgb(94%, 94%, 94%);
  }
  .ticklines g, .tickglyph g, .legendBorder g {
    stroke: rgb(94%, 94%, 94%);
  }
  .legendBorder g {
    fill: rgb(5%, 5%, 5%);
  }
}
svg { font-family: system-ui,-apple-system,"Segoe UI",Roboto,"Helvetica Neue",Arial,"Noto Sans","Liberation Sans",sans-serif,"Apple Color Emoji","Segoe UI Emoji","Segoe UI Symbol","Noto Color Emoji";
}

ticktext { font-family: SFMono-Regular,Menlo,Monaco,Consolas,"Liberation Mono","Courier New",monospace;
}

</style><g class="chart"><g class="scatterPlot"><g stroke-width="0.0030" stroke="rgb(2%, 29%, 48%)" stroke-opacity="1.0" fill="rgb(2%, 73%, 80%)" fill-opacity="0.2"><rect width="0.0300" height="0.0300" x="0.2583" y="0.1170"/><rect width="0.0300" height="0.0300" x="0.1055" y="0.0558"/><rect width="0.0300" height="0.0300" x="0.1413" y="0.2335"/><rect width="0.0300" height="0.0300" x="-0.1610" y="0.1913"/><rect width="0.0300" height="0.0300" x="0.1015" y="0.0223"/><rect width="0.0300" height="0.0300" x="0.1778" y="0.1680"/><rect width="0.0300" height="0.0300" x="0.1884" y="0.1660"/><rect width="0.0300" height="0.0300" x="0.2883" y="0.2340"/><rect width="0.0300" height="0.0300" x="0.0153" y="-0.0174"/><rect width="0.0300" height="0.0300" x="0.1908" y="0.2125"/><rect width="0.0300" height="0.0300" x="0.0031" y="0.1257"/><rect width="0.0300" height="0.0300" x="-0.0862" y="-0.1154"/><rect width="0.0300" height="0.0300" x="-0.1130" y="0.0637"/><rect width="0.0300" height="0.0300" x="0.3078" y="0.0437"/><rect width="0.0300" height="0.0300" x="-0.1740" y="-0.0807"/><rect width="0.0300" height="0.0300" x="0.1169" y="0.1896"/><rect width="0.0300" height="0.0300" x="-0.2536" y="-0.0938"/><rect width="0.0300" height="0.0300" x="0.0616" y="-0.1188"/><rect width="0.0300" height="0.0300" x="0.2046" y="0.0391"/><rect width="0.0300" height="0.0300" x="0.2176" y="0.1653"/><rect width="0.0300" height="0.0300" x="0.0316" y="0.1303"/><rect width="0.0300" height="0.0300" x="-0.1618" y="0.1635"/><rect width="0.0300" height="0.0300" x="0.1388" y="0.0527"/><rect width="0.0300" height="0.0300" x="0.0852" y="0.0645"/><rect width="0.0300" height="0.0300" x="-0.2187" y="0.1717"/><rect width="0.0300" height="0.0300" x="0.1900" y="0.1075"/><rect width="0.0300" height="0.0300" x="0.0698" y="0.2078"/><rect width="0.0300" height="0.0300" x="-0.0164" y="0.1074"/><rect width="0.0300" height="0.0300" x="0.0820" y="0.0686"/><rect width="0.0300" height="0.0300" x="0.0771" y="0.0783"/><rect width="0.0300" height="0.0300" x="0.0324" y="0.0005"/><rect width="0.0300" height="0.0300" x="-0.2292" y="0.1210"/><rect width="0.0300" height="0.0300" x="0.1908" y="0.0537"/><rect width="0.0300" height="0.0300" x="0.1770" y="0.0211"/><rect width="0.0300" height="0.0300" x="0.3607" y="-0.0181"/><rect width="0.0300" height="0.0300" x="0.1234" y="-0.0657"/><rect width="0.0300" height="0.0300" x="0.0690" y="0.1629"/><rect width="0.0300" height="0.0300" x="-0.2292" y="-0.0196"/><rect width="0.0300" height="0.0300" x="-0.2414" y="0.0600"/><rect width="0.0300" height="0.0300" x="-0.0732" y="0.0058"/><rect width="0.0300" height="0.0300" x="0.0820" y="0.0606"/><rect width="0.0300" height="0.0300" x="0.0519" y="0.1356"/><rect width="0.0300" height="0.0300" x="0.2461" y="0.0156"/><rect width="0.0300" height="0.0300" x="0.0405" y="-0.0973"/><rect width="0.0300" height="0.0300" x="0.0527" y="0.1285"/><rect width="0.0300" height="0.0300" x="-0.0253" y="0.0320"/><rect width="0.0300" height="0.0300" x="-0.0082" y="-0.0279"/><rect width="0.0300" height="0.0300" x="-0.0350" y="0.1257"/><rect width="0.0300" height="0.0300" x="0.0795" y="0.2270"/><rect width="0.0300" height="0.0300" x="0.0649" y="0.0297"/><rect width="0.0300" height="0.0300" x="0.1819" y="0.0818"/><rect width="0.0300" height="0.0300" x="0.0730" y="0.0919"/><rect width="0.0300" height="0.0300" x="0.0446" y="0.1350"/><rect width="0.0300" height="0.0300" x="0.5110" y="0.2420"/><rect width="0.0300" height="0.0300" x="0.0308" y="0.0176"/><rect width="0.0300" height="0.0300" x="-0.0001" y="-0.0013"/><rect width="0.0300" height="0.0300" x="0.3192" y="0.0966"/><rect width="0.0300" height="0.0300" x="0.2607" y="0.1659"/><rect width="0.0300" height="0.0300" x="0.0820" y="-0.1229"/><rect width="0.0300" height="0.0300" x="0.1470" y="0.0244"/><rect width="0.0300" height="0.0300" x="-0.0302" y="0.0645"/><rect width="0.0300" height="0.0300" x="0.0641" y="0.1504"/><rect width="0.0300" height="0.0300" x="0.5167" y="0.1833"/><rect width="0.0300" height="0.0300" x="-0.1269" y="0.0840"/><rect width="0.0300" height="0.0300" x="0.2128" y="0.1581"/><rect width="0.0300" height="0.0300" x="-0.1984" y="0.1896"/><rect width="0.0300" height="0.0300" x="0.1429" y="0.1807"/><rect width="0.0300" height="0.0300" x="0.1283" y="-0.0866"/><rect width="0.0300" height="0.0300" x="0.0324" y="0.0137"/><rect width="0.0300" height="0.0300" x="0.2631" y="0.1081"/><rect width="0.0300" height="0.0300" x="0.1437" y="0.0443"/><rect width="0.0300" height="0.0300" x="0.1080" y="0.1052"/><rect width="0.0300" height="0.0300" x="0.1632" y="-0.0116"/><rect width="0.0300" height="0.0300" x="-0.0643" y="0.0953"/><rect width="0.0300" height="0.0300" x="0.2453" y="0.0374"/><rect width="0.0300" height="0.0300" x="0.2729" y="0.1338"/><rect width="0.0300" height="0.0300" x="-0.0627" y="-0.1208"/><rect width="0.0300" height="0.0300" x="0.2055" y="-0.0359"/><rect width="0.0300" height="0.0300" x="-0.2130" y="0.0794"/><rect width="0.0300" height="0.0300" x="0.2095" y="0.1409"/><rect width="0.0300" height="0.0300" x="0.1258" y="0.0707"/><rect width="0.0300" height="0.0300" x="-0.2179" y="0.0845"/><rect width="0.0300" height="0.0300" x="0.1689" y="0.1170"/><rect width="0.0300" height="0.0300" x="0.0616" y="0.0805"/><rect width="0.0300" height="0.0300" x="0.1665" y="0.1139"/><rect width="0.0300" height="0.0300" x="-0.1724" y="0.0103"/><rect width="0.0300" height="0.0300" x="0.0568" y="0.1138"/><rect width="0.0300" height="0.0300" x="0.0275" y="0.2592"/><rect width="0.0300" height="0.0300" x="0.4663" y="0.0479"/><rect width="0.0300" height="0.0300" x="-0.2252" y="0.0497"/><rect width="0.0300" height="0.0300" x="0.2006" y="-0.0810"/><rect width="0.0300" height="0.0300" x="0.0982" y="0.0227"/><rect width="0.0300" height="0.0300" x="-0.0911" y="0.1515"/><rect width="0.0300" height="0.0300" x="0.1453" y="-0.0275"/><rect width="0.0300" height="0.0300" x="0.2924" y="0.0629"/><rect width="0.0300" height="0.0300" x="0.1266" y="0.2819"/><rect width="0.0300" height="0.0300" x="0.2648" y="0.2520"/><rect width="0.0300" height="0.0300" x="0.2916" y="0.0259"/><rect width="0.0300" height="0.0300" x="0.1494" y="0.0847"/><rect width="0.0300" height="0.0300" x="0.0153" y="-0.0854"/><rect width="0.0300" height="0.0300" x="0.1738" y="-0.0738"/><rect width="0.0300" height="0.0300" x="0.1031" y="0.0274"/><rect width="0.0300" height="0.0300" x="-0.1423" y="0.0633"/><rect width="0.0300" height="0.0300" x="-0.0911" y="0.1046"/><rect width="0.0300" height="0.0300" x="0.2120" y="-0.0917"/><rect width="0.0300" height="0.0300" x="0.1949" y="0.0436"/><rect width="0.0300" height="0.0300" x="-0.0692" y="0.1019"/><rect width="0.0300" height="0.0300" x="0.0080" y="0.0974"/><rect width="0.0300" height="0.0300" x="-0.1074" y="0.0829"/><rect width="0.0300" height="0.0300" x="-0.1626" y="-0.0887"/><rect width="0.0300" height="0.0300" x="0.0852" y="-0.1571"/><rect width="0.0300" height="0.0300" x="0.1665" y="0.0216"/><rect width="0.0300" height="0.0300" x="0.0170" y="0.0805"/><rect width="0.0300" height="0.0300" x="-0.0399" y="0.0513"/><rect width="0.0300" height="0.0300" x="0.1900" y="0.1140"/><rect width="0.0300" height="0.0300" x="-0.0464" y="0.0150"/><rect width="0.0300" height="0.0300" x="0.0568" y="0.0378"/><rect width="0.0300" height="0.0300" x="0.1502" y="0.0832"/><rect width="0.0300" height="0.0300" x="0.0495" y="-0.1003"/><rect width="0.0300" height="0.0300" x="0.0072" y="0.2778"/><rect width="0.0300" height="0.0300" x="0.0243" y="-0.0277"/><rect width="0.0300" height="0.0300" x="0.0218" y="0.1686"/><rect width="0.0300" height="0.0300" x="0.0503" y="-0.0232"/><rect width="0.0300" height="0.0300" x="0.1811" y="0.1542"/><rect width="0.0300" height="0.0300" x="0.0397" y="0.1210"/><rect width="0.0300" height="0.0300" x="0.0616" y="0.1331"/><rect width="0.0300" height="0.0300" x="0.1827" y="0.1139"/><rect width="0.0300" height="0.0300" x="-0.2398" y="0.2243"/><rect width="0.0300" height="0.0300" x="-0.0529" y="0.0525"/><rect width="0.0300" height="0.0300" x="0.1193" y="0.0412"/><rect width="0.0300" height="0.0300" x="0.2298" y="0.2542"/><rect width="0.0300" height="0.0300" x="0.0828" y="-0.1066"/><rect width="0.0300" height="0.0300" x="-0.0537" y="0.1179"/><rect width="0.0300" height="0.0300" x="0.0486" y="0.0139"/><rect width="0.0300" height="0.0300" x="-0.0034" y="0.1348"/><rect width="0.0300" height="0.0300" x="-0.1634" y="0.1196"/><rect width="0.0300" height="0.0300" x="0.1494" y="0.2062"/><rect width="0.0300" height="0.0300" x="0.1185" y="0.1416"/><rect width="0.0300" height="0.0300" x="0.0990" y="0.0437"/><rect width="0.0300" height="0.0300" x="-0.3414" y="0.0042"/><rect width="0.0300" height="0.0300" x="0.0105" y="-0.1545"/><rect width="0.0300" height="0.0300" x="-0.0554" y="0.0107"/><rect width="0.0300" height="0.0300" x="-0.1334" y="0.0542"/><rect width="0.0300" height="0.0300" x="0.0649" y="-0.0273"/><rect width="0.0300" height="0.0300" x="0.2859" y="0.0897"/><rect width="0.0300" height="0.0300" x="0.0316" y="0.0397"/><rect width="0.0300" height="0.0300" x="-0.1529" y="0.0595"/><rect width="0.0300" height="0.0300" x="0.0543" y="0.0168"/><rect width="0.0300" height="0.0300" x="-0.1017" y="0.0343"/><rect width="0.0300" height="0.0300" x="0.1600" y="0.1608"/><rect width="0.0300" height="0.0300" x="0.2932" y="0.0548"/><rect width="0.0300" height="0.0300" x="0.0958" y="0.1307"/><rect width="0.0300" height="0.0300" x="0.3493" y="0.0189"/><rect width="0.0300" height="0.0300" x="-0.0968" y="0.1536"/><rect width="0.0300" height="0.0300" x="0.2014" y="-0.0404"/><rect width="0.0300" height="0.0300" x="0.2298" y="0.0717"/><rect width="0.0300" height="0.0300" x="0.0446" y="-0.1030"/><rect width="0.0300" height="0.0300" x="-0.0602" y="0.0653"/><rect width="0.0300" height="0.0300" x="0.1746" y="0.2352"/><rect width="0.0300" height="0.0300" x="-0.1585" y="0.0526"/><rect width="0.0300" height="0.0300" x="0.0714" y="0.1493"/><rect width="0.0300" height="0.0300" x="-0.0472" y="-0.0126"/><rect width="0.0300" height="0.0300" x="-0.0350" y="0.0107"/><rect width="0.0300" height="0.0300" x="0.2510" y="0.0871"/><rect width="0.0300" height="0.0300" x="-0.0562" y="-0.0436"/><rect width="0.0300" height="0.0300" x="-0.2406" y="0.0682"/><rect width="0.0300" height="0.0300" x="0.0600" y="0.1065"/><rect width="0.0300" height="0.0300" x="-0.0342" y="-0.0519"/><rect width="0.0300" height="0.0300" x="-0.0765" y="0.0359"/><rect width="0.0300" height="0.0300" x="-0.1935" y="0.0679"/><rect width="0.0300" height="0.0300" x="-0.0708" y="0.0938"/><rect width="0.0300" height="0.0300" x="0.1851" y="0.0865"/><rect width="0.0300" height="0.0300" x="-0.2057" y="0.0391"/><rect width="0.0300" height="0.0300" x="-0.2593" y="0.2269"/><rect width="0.0300" height="0.0300" x="0.3615" y="0.1122"/><rect width="0.0300" height="0.0300" x="-0.0066" y="0.1438"/><rect width="0.0300" height="0.0300" x="-0.0424" y="0.1694"/><rect width="0.0300" height="0.0300" x="0.0925" y="0.1470"/><rect width="0.0300" height="0.0300" x="0.2436" y="0.1989"/><rect width="0.0300" height="0.0300" x="-0.0017" y="0.1728"/><rect width="0.0300" height="0.0300" x="-0.0367" y="0.1380"/><rect width="0.0300" height="0.0300" x="0.0527" y="-0.0168"/><rect width="0.0300" height="0.0300" x="0.0616" y="0.0207"/><rect width="0.0300" height="0.0300" x="0.1364" y="0.1708"/><rect width="0.0300" height="0.0300" x="0.3769" y="0.2353"/><rect width="0.0300" height="0.0300" x="0.1941" y="0.0604"/><rect width="0.0300" height="0.0300" x="0.0535" y="0.0579"/><rect width="0.0300" height="0.0300" x="-0.1797" y="0.0231"/><rect width="0.0300" height="0.0300" x="-0.1439" y="0.0412"/><rect width="0.0300" height="0.0300" x="0.1023" y="0.1697"/><rect width="0.0300" height="0.0300" x="0.0901" y="0.1749"/><rect width="0.0300" height="0.0300" x="0.1161" y="0.0600"/><rect width="0.0300" height="0.0300" x="-0.0684" y="0.0701"/><rect width="0.0300" height="0.0300" x="0.3355" y="-0.0366"/><rect width="0.0300" height="0.0300" x="-0.1057" y="0.1966"/><rect width="0.0300" height="0.0300" x="0.0787" y="-0.1434"/><rect width="0.0300" height="0.0300" x="-0.0066" y="-0.1072"/><rect width="0.0300" height="0.0300" x="-0.0675" y="0.0774"/><rect width="0.0300" height="0.0300" x="0.1340" y="0.0609"/><rect width="0.0300" height="0.0300" x="0.0462" y="-0.1528"/><rect width="0.0300" height="0.0300" x="0.1023" y="0.1227"/><rect width="0.0300" height="0.0300" x="0.3257" y="0.1678"/><rect width="0.0300" height="0.0300" x="0.1461" y="0.0274"/><rect width="0.0300" height="0.0300" x="0.2591" y="-0.0274"/><rect width="0.0300" height="0.0300" x="0.1136" y="0.0446"/><rect width="0.0300" height="0.0300" x="0.0340" y="-0.0851"/><rect width="0.0300" height="0.0300" x="-0.0602" y="0.1101"/><rect width="0.0300" height="0.0300" x="0.0365" y="0.0127"/><rect width="0.0300" height="0.0300" x="0.1177" y="0.0288"/><rect width="0.0300" height="0.0300" x="-0.2333" y="-0.1372"/><rect width="0.0300" height="0.0300" x="-0.0009" y="0.2792"/><rect width="0.0300" height="0.0300" x="0.0218" y="0.0472"/><rect width="0.0300" height="0.0300" x="0.1364" y="0.0742"/><rect width="0.0300" height="0.0300" x="0.4289" y="0.0282"/><rect width="0.0300" height="0.0300" x="-0.0302" y="0.0026"/><rect width="0.0300" height="0.0300" x="0.2258" y="0.1078"/><rect width="0.0300" height="0.0300" x="0.0040" y="0.2093"/><rect width="0.0300" height="0.0300" x="0.1730" y="-0.0130"/><rect width="0.0300" height="0.0300" x="0.2315" y="0.0426"/><rect width="0.0300" height="0.0300" x="0.1388" y="-0.0623"/><rect width="0.0300" height="0.0300" x="0.0365" y="0.2544"/><rect width="0.0300" height="0.0300" x="0.1437" y="0.2489"/><rect width="0.0300" height="0.0300" x="-0.1041" y="0.0974"/><rect width="0.0300" height="0.0300" x="0.0787" y="0.1943"/><rect width="0.0300" height="0.0300" x="-0.1065" y="-0.0838"/><rect width="0.0300" height="0.0300" x="0.0178" y="0.0860"/><rect width="0.0300" height="0.0300" x="-0.1025" y="0.0745"/><rect width="0.0300" height="0.0300" x="0.0616" y="-0.0431"/><rect width="0.0300" height="0.0300" x="0.1405" y="0.0579"/><rect width="0.0300" height="0.0300" x="0.1315" y="0.2320"/><rect width="0.0300" height="0.0300" x="0.0332" y="0.1030"/><rect width="0.0300" height="0.0300" x="-0.0424" y="0.1044"/><rect width="0.0300" height="0.0300" x="-0.1455" y="0.1741"/><rect width="0.0300" height="0.0300" x="0.1023" y="-0.0249"/><rect width="0.0300" height="0.0300" x="0.0616" y="0.0751"/><rect width="0.0300" height="0.0300" x="-0.2032" y="0.2417"/><rect width="0.0300" height="0.0300" x="0.1453" y="-0.3274"/><rect width="0.0300" height="0.0300" x="0.1169" y="0.1052"/><rect width="0.0300" height="0.0300" x="-0.1350" y="0.1371"/><rect width="0.0300" height="0.0300" x="-0.1764" y="0.0808"/><rect width="0.0300" height="0.0300" x="0.1502" y="0.0649"/><rect width="0.0300" height="0.0300" x="0.3387" y="0.1523"/><rect width="0.0300" height="0.0300" x="0.1218" y="-0.1283"/><rect width="0.0300" height="0.0300" x="0.1023" y="0.0617"/><rect width="0.0300" height="0.0300" x="-0.3129" y="0.0181"/><rect width="0.0300" height="0.0300" x="-0.0107" y="-0.1420"/><rect width="0.0300" height="0.0300" x="-0.1285" y="0.1542"/><rect width="0.0300" height="0.0300" x="0.3103" y="0.1666"/><rect width="0.0300" height="0.0300" x="0.1730" y="0.0228"/><rect width="0.0300" height="0.0300" x="0.1258" y="0.0796"/><rect width="0.0300" height="0.0300" x="0.0690" y="0.1288"/><rect width="0.0300" height="0.0300" x="0.0746" y="-0.0538"/><rect width="0.0300" height="0.0300" x="0.0308" y="-0.1215"/><rect width="0.0300" height="0.0300" x="-0.0554" y="0.2131"/><rect width="0.0300" height="0.0300" x="0.3932" y="0.0701"/><rect width="0.0300" height="0.0300" x="-0.0497" y="-0.0527"/><rect width="0.0300" height="0.0300" x="0.3078" y="-0.0110"/><rect width="0.0300" height="0.0300" x="0.1665" y="-0.0908"/><rect width="0.0300" height="0.0300" x="0.2306" y="-0.0995"/><rect width="0.0300" height="0.0300" x="0.3184" y="0.1303"/><rect width="0.0300" height="0.0300" x="0.1291" y="0.1727"/><rect width="0.0300" height="0.0300" x="-0.0562" y="0.0652"/><rect width="0.0300" height="0.0300" x="-0.1204" y="0.0891"/><rect width="0.0300" height="0.0300" x="-0.1074" y="0.0902"/><rect width="0.0300" height="0.0300" x="0.0584" y="0.0446"/><rect width="0.0300" height="0.0300" x="0.3615" y="0.1357"/><rect width="0.0300" height="0.0300" x="0.1315" y="0.1679"/><rect width="0.0300" height="0.0300" x="0.1258" y="0.0118"/><rect width="0.0300" height="0.0300" x="0.2664" y="0.0982"/><rect width="0.0300" height="0.0300" x="-0.1464" y="0.0623"/><rect width="0.0300" height="0.0300" x="-0.1772" y="0.1536"/><rect width="0.0300" height="0.0300" x="-0.1220" y="-0.1504"/><rect width="0.0300" height="0.0300" x="0.0275" y="0.1140"/><rect width="0.0300" height="0.0300" x="-0.0155" y="0.0986"/><rect width="0.0300" height="0.0300" x="0.1461" y="-0.0653"/><rect width="0.0300" height="0.0300" x="-0.0513" y="0.0769"/><rect width="0.0300" height="0.0300" x="0.2087" y="0.2536"/><rect width="0.0300" height="0.0300" x="-0.0960" y="0.1834"/><rect width="0.0300" height="0.0300" x="-0.2195" y="0.2017"/><rect width="0.0300" height="0.0300" x="0.0543" y="0.2712"/><rect width="0.0300" height="0.0300" x="0.3038" y="-0.0703"/><rect width="0.0300" height="0.0300" x="0.1673" y="0.1565"/><rect width="0.0300" height="0.0300" x="-0.0318" y="0.1561"/><rect width="0.0300" height="0.0300" x="-0.0294" y="-0.0219"/><rect width="0.0300" height="0.0300" x="0.0974" y="0.1046"/><rect width="0.0300" height="0.0300" x="0.1177" y="0.0002"/><rect width="0.0300" height="0.0300" x="0.2266" y="0.0473"/><rect width="0.0300" height="0.0300" x="0.1478" y="-0.0525"/><rect width="0.0300" height="0.0300" x="0.1039" y="0.0934"/><rect width="0.0300" height="0.0300" x="0.2518" y="0.0119"/><rect width="0.0300" height="0.0300" x="-0.0814" y="0.1050"/><rect width="0.0300" height="0.0300" x="-0.1342" y="0.0639"/><rect width="0.0300" height="0.0300" x="0.2241" y="0.2194"/><rect width="0.0300" height="0.0300" x="0.1153" y="0.1205"/><rect width="0.0300" height="0.0300" x="0.0218" y="-0.0026"/><rect width="0.0300" height="0.0300" x="0.0365" y="-0.0790"/><rect width="0.0300" height="0.0300" x="0.1104" y="0.1357"/><rect width="0.0300" height="0.0300" x="0.0917" y="-0.1063"/><rect width="0.0300" height="0.0300" x="-0.1951" y="-0.0978"/><rect width="0.0300" height="0.0300" x="0.3541" y="0.1833"/><rect width="0.0300" height="0.0300" x="0.2461" y="0.1364"/><rect width="0.0300" height="0.0300" x="0.2079" y="0.0977"/><rect width="0.0300" height="0.0300" x="0.0551" y="0.1780"/><rect width="0.0300" height="0.0300" x="0.1006" y="0.0095"/><rect width="0.0300" height="0.0300" x="0.1201" y="-0.0525"/><rect width="0.0300" height="0.0300" x="0.1526" y="0.1538"/><rect width="0.0300" height="0.0300" x="0.1900" y="-0.0529"/><rect width="0.0300" height="0.0300" x="-0.3316" y="-0.0796"/><rect width="0.0300" height="0.0300" x="0.0519" y="0.0701"/><rect width="0.0300" height="0.0300" x="-0.1399" y="0.1978"/><rect width="0.0300" height="0.0300" x="-0.1845" y="0.1368"/><rect width="0.0300" height="0.0300" x="-0.1350" y="0.0451"/><rect width="0.0300" height="0.0300" x="0.0560" y="0.0322"/><rect width="0.0300" height="0.0300" x="-0.0172" y="0.1196"/><rect width="0.0300" height="0.0300" x="-0.3787" y="0.0878"/><rect width="0.0300" height="0.0300" x="0.1543" y="0.0245"/><rect width="0.0300" height="0.0300" x="-0.0505" y="0.1234"/><rect width="0.0300" height="0.0300" x="0.2761" y="-0.0277"/><rect width="0.0300" height="0.0300" x="0.0608" y="-0.0248"/><rect width="0.0300" height="0.0300" x="-0.0472" y="0.0670"/><rect width="0.0300" height="0.0300" x="0.2940" y="0.1074"/><rect width="0.0300" height="0.0300" x="-0.0326" y="0.0073"/><rect width="0.0300" height="0.0300" x="0.0438" y="0.0240"/><rect width="0.0300" height="0.0300" x="-0.0854" y="0.1566"/><rect width="0.0300" height="0.0300" x="0.0763" y="0.1286"/><rect width="0.0300" height="0.0300" x="0.0811" y="0.1288"/><rect width="0.0300" height="0.0300" x="0.2282" y="0.0594"/><rect width="0.0300" height="0.0300" x="0.1860" y="0.0832"/><rect width="0.0300" height="0.0300" x="0.1031" y="0.1818"/><rect width="0.0300" height="0.0300" x="0.1461" y="0.2706"/><rect width="0.0300" height="0.0300" x="-0.1870" y="-0.0698"/><rect width="0.0300" height="0.0300" x="-0.2617" y="0.0514"/><rect width="0.0300" height="0.0300" x="0.1136" y="0.1551"/><rect width="0.0300" height="0.0300" x="0.1055" y="0.1510"/><rect width="0.0300" height="0.0300" x="0.1583" y="-0.0708"/><rect width="0.0300" height="0.0300" x="-0.1187" y="0.1001"/><rect width="0.0300" height="0.0300" x="-0.0554" y="0.0822"/><rect width="0.0300" height="0.0300" x="-0.1789" y="0.0454"/><rect width="0.0300" height="0.0300" x="-0.0375" y="0.1232"/><rect width="0.0300" height="0.0300" x="0.0649" y="0.2129"/><rect width="0.0300" height="0.0300" x="0.1600" y="0.0114"/><rect width="0.0300" height="0.0300" x="-0.0895" y="0.0294"/><rect width="0.0300" height="0.0300" x="0.1754" y="0.0950"/><rect width="0.0300" height="0.0300" x="0.4078" y="0.0435"/><rect width="0.0300" height="0.0300" x="0.3030" y="0.1148"/><rect width="0.0300" height="0.0300" x="0.0576" y="0.0070"/><rect width="0.0300" height="0.0300" x="0.0958" y="-0.0525"/><rect width="0.0300" height="0.0300" x="0.3607" y="0.1833"/><rect width="0.0300" height="0.0300" x="0.1665" y="-0.0783"/><rect width="0.0300" height="0.0300" x="-0.2934" y="0.0150"/><rect width="0.0300" height="0.0300" x="-0.1358" y="-0.0656"/><rect width="0.0300" height="0.0300" x="0.0860" y="-0.0243"/><rect width="0.0300" height="0.0300" x="-0.2024" y="-0.1258"/><rect width="0.0300" height="0.0300" x="-0.0497" y="0.2212"/><rect width="0.0300" height="0.0300" x="-0.3145" y="0.0565"/><rect width="0.0300" height="0.0300" x="-0.1082" y="0.0513"/><rect width="0.0300" height="0.0300" x="-0.1407" y="0.0578"/><rect width="0.0300" height="0.0300" x="0.1665" y="0.1102"/><rect width="0.0300" height="0.0300" x="-0.0870" y="0.0871"/><rect width="0.0300" height="0.0300" x="0.0592" y="0.2220"/><rect width="0.0300" height="0.0300" x="-0.0285" y="-0.0959"/><rect width="0.0300" height="0.0300" x="0.1283" y="0.0419"/><rect width="0.0300" height="0.0300" x="0.2087" y="0.0756"/><rect width="0.0300" height="0.0300" x="0.3395" y="0.0061"/><rect width="0.0300" height="0.0300" x="0.1161" y="0.2125"/><rect width="0.0300" height="0.0300" x="0.3030" y="0.1294"/><rect width="0.0300" height="0.0300" x="0.1502" y="0.1989"/><rect width="0.0300" height="0.0300" x="-0.0326" y="0.0022"/><rect width="0.0300" height="0.0300" x="0.1819" y="-0.0640"/><rect width="0.0300" height="0.0300" x="0.0137" y="0.1704"/><rect width="0.0300" height="0.0300" x="-0.0684" y="0.0954"/><rect width="0.0300" height="0.0300" x="0.0243" y="-0.1044"/><rect width="0.0300" height="0.0300" x="-0.0326" y="0.1812"/><rect width="0.0300" height="0.0300" x="-0.0350" y="0.2526"/><rect width="0.0300" height="0.0300" x="-0.0334" y="0.0417"/><rect width="0.0300" height="0.0300" x="0.0681" y="-0.0889"/><rect width="0.0300" height="0.0300" x="-0.1667" y="-0.1194"/><rect width="0.0300" height="0.0300" x="-0.0359" y="0.0937"/><rect width="0.0300" height="0.0300" x="0.0283" y="-0.0603"/><rect width="0.0300" height="0.0300" x="0.3273" y="0.1303"/><rect width="0.0300" height="0.0300" x="0.2160" y="-0.2480"/><rect width="0.0300" height="0.0300" x="-0.0805" y="0.0518"/><rect width="0.0300" height="0.0300" x="0.0771" y="-0.1506"/><rect width="0.0300" height="0.0300" x="0.0551" y="0.0072"/><rect width="0.0300" height="0.0300" x="0.0308" y="0.0144"/><rect width="0.0300" height="0.0300" x="0.0551" y="0.0105"/><rect width="0.0300" height="0.0300" x="0.0608" y="0.1264"/><rect width="0.0300" height="0.0300" x="0.1136" y="-0.1037"/><rect width="0.0300" height="0.0300" x="-0.0399" y="0.0748"/><rect width="0.0300" height="0.0300" x="-0.0480" y="0.0967"/><rect width="0.0300" height="0.0300" x="0.4785" y="-0.0987"/><rect width="0.0300" height="0.0300" x="0.0714" y="0.0450"/><rect width="0.0300" height="0.0300" x="0.0950" y="0.0594"/><rect width="0.0300" height="0.0300" x="-0.0578" y="0.0697"/><rect width="0.0300" height="0.0300" x="-0.2601" y="0.1246"/><rect width="0.0300" height="0.0300" x="0.2290" y="0.0946"/><rect width="0.0300" height="0.0300" x="-0.2081" y="0.1169"/><rect width="0.0300" height="0.0300" x="0.2721" y="-0.1078"/><rect width="0.0300" height="0.0300" x="0.2900" y="-0.0923"/><rect width="0.0300" height="0.0300" x="0.5378" y="0.1547"/><rect width="0.0300" height="0.0300" x="0.1624" y="0.1257"/><rect width="0.0300" height="0.0300" x="0.3550" y="0.1443"/><rect width="0.0300" height="0.0300" x="-0.0667" y="0.1438"/><rect width="0.0300" height="0.0300" x="-0.2414" y="0.1576"/><rect width="0.0300" height="0.0300" x="0.0616" y="0.1833"/><rect width="0.0300" height="0.0300" x="0.0616" y="0.1257"/><rect width="0.0300" height="0.0300" x="-0.1537" y="-0.0292"/><rect width="0.0300" height="0.0300" x="-0.0172" y="0.1464"/><rect width="0.0300" height="0.0300" x="0.3363" y="0.0009"/><rect width="0.0300" height="0.0300" x="-0.0277" y="0.0542"/><rect width="0.0300" height="0.0300" x="0.1640" y="-0.1566"/><rect width="0.0300" height="0.0300" x="0.3208" y="0.0699"/><rect width="0.0300" height="0.0300" x="-0.2065" y="0.0106"/><rect width="0.0300" height="0.0300" x="0.1023" y="0.0118"/><rect width="0.0300" height="0.0300" x="0.0040" y="0.1903"/><rect width="0.0300" height="0.0300" x="0.1388" y="0.2033"/><rect width="0.0300" height="0.0300" x="0.1754" y="0.0611"/><rect width="0.0300" height="0.0300" x="0.1526" y="0.2563"/><rect width="0.0300" height="0.0300" x="0.0893" y="0.2289"/><rect width="0.0300" height="0.0300" x="0.0998" y="-0.0174"/><rect width="0.0300" height="0.0300" x="0.0568" y="0.2697"/><rect width="0.0300" height="0.0300" x="0.0535" y="-0.0440"/><rect width="0.0300" height="0.0300" x="0.1136" y="0.1224"/><rect width="0.0300" height="0.0300" x="0.3720" y="0.0308"/><rect width="0.0300" height="0.0300" x="-0.0960" y="0.0632"/><rect width="0.0300" height="0.0300" x="0.1169" y="0.0136"/><rect width="0.0300" height="0.0300" x="-0.2016" y="0.1087"/><rect width="0.0300" height="0.0300" x="0.2323" y="0.0376"/><rect width="0.0300" height="0.0300" x="-0.0066" y="0.0625"/><rect width="0.0300" height="0.0300" x="-0.1204" y="0.0880"/><rect width="0.0300" height="0.0300" x="0.1925" y="-0.0314"/><rect width="0.0300" height="0.0300" x="0.3346" y="0.0362"/><rect width="0.0300" height="0.0300" x="0.1210" y="0.0511"/><rect width="0.0300" height="0.0300" x="0.0137" y="0.1989"/><rect width="0.0300" height="0.0300" x="-0.0968" y="0.0643"/><rect width="0.0300" height="0.0300" x="0.0080" y="-0.0297"/><rect width="0.0300" height="0.0300" x="0.2233" y="0.0102"/><rect width="0.0300" height="0.0300" x="0.1746" y="0.0330"/><rect width="0.0300" height="0.0300" x="0.1591" y="-0.0212"/><rect width="0.0300" height="0.0300" x="0.1088" y="0.1869"/><rect width="0.0300" height="0.0300" x="0.0941" y="0.0438"/><rect width="0.0300" height="0.0300" x="0.1575" y="0.1680"/><rect width="0.0300" height="0.0300" x="0.2152" y="0.0345"/><rect width="0.0300" height="0.0300" x="0.0153" y="-0.1533"/><rect width="0.0300" height="0.0300" x="-0.3024" y="0.0221"/><rect width="0.0300" height="0.0300" x="-0.2812" y="0.2050"/><rect width="0.0300" height="0.0300" x="-0.1082" y="-0.0168"/><rect width="0.0300" height="0.0300" x="0.0771" y="0.1071"/><rect width="0.0300" height="0.0300" x="0.3208" y="-0.0714"/><rect width="0.0300" height="0.0300" x="0.2981" y="0.0579"/><rect width="0.0300" height="0.0300" x="-0.0651" y="0.1026"/><rect width="0.0300" height="0.0300" x="0.3208" y="0.2524"/><rect width="0.0300" height="0.0300" x="0.0828" y="0.1372"/><rect width="0.0300" height="0.0300" x="-0.0749" y="0.2243"/><rect width="0.0300" height="0.0300" x="0.0787" y="0.0590"/><rect width="0.0300" height="0.0300" x="0.0909" y="0.0564"/><rect width="0.0300" height="0.0300" x="0.1120" y="-0.1264"/><rect width="0.0300" height="0.0300" x="0.0576" y="0.1106"/><rect width="0.0300" height="0.0300" x="0.1136" y="0.2821"/><rect width="0.0300" height="0.0300" x="0.2136" y="0.2245"/><rect width="0.0300" height="0.0300" x="0.1128" y="0.0773"/><rect width="0.0300" height="0.0300" x="-0.0099" y="0.1385"/><rect width="0.0300" height="0.0300" x="-0.0708" y="0.2505"/><rect width="0.0300" height="0.0300" x="0.1851" y="0.0454"/><rect width="0.0300" height="0.0300" x="0.2128" y="0.0733"/><rect width="0.0300" height="0.0300" x="0.1624" y="0.1235"/><rect width="0.0300" height="0.0300" x="0.0820" y="0.0754"/><rect width="0.0300" height="0.0300" x="0.1210" y="0.1365"/><rect width="0.0300" height="0.0300" x="-0.0066" y="0.0474"/><rect width="0.0300" height="0.0300" x="0.1307" y="0.1286"/><rect width="0.0300" height="0.0300" x="-0.0017" y="0.0499"/><rect width="0.0300" height="0.0300" x="-0.0294" y="0.0078"/><rect width="0.0300" height="0.0300" x="-0.1715" y="0.1849"/><rect width="0.0300" height="0.0300" x="0.2461" y="-0.0908"/><rect width="0.0300" height="0.0300" x="-0.0050" y="-0.0988"/><rect width="0.0300" height="0.0300" x="-0.0090" y="-0.0242"/><rect width="0.0300" height="0.0300" x="0.0852" y="0.0654"/><rect width="0.0300" height="0.0300" x="-0.1642" y="-0.1433"/><rect width="0.0300" height="0.0300" x="-0.1715" y="0.1797"/><rect width="0.0300" height="0.0300" x="0.2055" y="0.0321"/><rect width="0.0300" height="0.0300" x="-0.0058" y="0.1078"/><rect width="0.0300" height="0.0300" x="0.1169" y="0.2674"/><rect width="0.0300" height="0.0300" x="-0.0700" y="0.0649"/><rect width="0.0300" height="0.0300" x="-0.0415" y="-0.1086"/><rect width="0.0300" height="0.0300" x="0.0771" y="-0.0642"/><rect width="0.0300" height="0.0300" x="-0.0838" y="0.1911"/><rect width="0.0300" height="0.0300" x="0.3745" y="-0.0811"/><rect width="0.0300" height="0.0300" x="0.0901" y="0.0150"/><rect width="0.0300" height="0.0300" x="-0.2414" y="0.0150"/><rect width="0.0300" height="0.0300" x="-0.0643" y="0.0305"/><rect width="0.0300" height="0.0300" x="0.1551" y="0.0757"/><rect width="0.0300" height="0.0300" x="-0.1813" y="0.1077"/><rect width="0.0300" height="0.0300" x="0.1965" y="0.0037"/><rect width="0.0300" height="0.0300" x="0.1811" y="-0.1313"/><rect width="0.0300" height="0.0300" x="0.2810" y="0.1787"/><rect width="0.0300" height="0.0300" x="0.1161" y="0.0806"/><rect width="0.0300" height="0.0300" x="0.0421" y="0.0653"/><rect width="0.0300" height="0.0300" x="0.0145" y="-0.0235"/><rect width="0.0300" height="0.0300" x="0.2404" y="0.0474"/><rect width="0.0300" height="0.0300" x="0.1656" y="-0.0184"/><rect width="0.0300" height="0.0300" x="0.2241" y="0.1371"/><rect width="0.0300" height="0.0300" x="0.0592" y="0.2499"/><rect width="0.0300" height="0.0300" x="-0.0529" y="0.1243"/><rect width="0.0300" height="0.0300" x="0.3265" y="0.0969"/><rect width="0.0300" height="0.0300" x="0.1063" y="0.2278"/><rect width="0.0300" height="0.0300" x="0.1006" y="0.1084"/><rect width="0.0300" height="0.0300" x="0.0040" y="0.0244"/><rect width="0.0300" height="0.0300" x="0.0145" y="-0.0456"/><rect width="0.0300" height="0.0300" x="0.1575" y="0.1257"/><rect width="0.0300" height="0.0300" x="-0.2593" y="-0.0555"/><rect width="0.0300" height="0.0300" x="0.5427" y="0.0548"/><rect width="0.0300" height="0.0300" x="-0.0684" y="0.2271"/><rect width="0.0300" height="0.0300" x="0.1006" y="0.1178"/><rect width="0.0300" height="0.0300" x="-0.0732" y="0.0330"/><rect width="0.0300" height="0.0300" x="-0.0895" y="0.1806"/><rect width="0.0300" height="0.0300" x="0.3346" y="-0.1390"/><rect width="0.0300" height="0.0300" x="0.3103" y="0.0906"/><rect width="0.0300" height="0.0300" x="0.1405" y="0.0728"/><rect width="0.0300" height="0.0300" x="0.0706" y="-0.0798"/><rect width="0.0300" height="0.0300" x="0.0909" y="-0.0450"/><rect width="0.0300" height="0.0300" x="0.0503" y="-0.1292"/><rect width="0.0300" height="0.0300" x="0.2055" y="0.0831"/><rect width="0.0300" height="0.0300" x="0.2436" y="0.0256"/><rect width="0.0300" height="0.0300" x="0.2412" y="-0.0101"/><rect width="0.0300" height="0.0300" x="0.1388" y="-0.0553"/><rect width="0.0300" height="0.0300" x="0.1348" y="-0.1272"/><rect width="0.0300" height="0.0300" x="0.2900" y="-0.1369"/><rect width="0.0300" height="0.0300" x="-0.3349" y="-0.0930"/><rect width="0.0300" height="0.0300" x="-0.0204" y="0.0531"/><rect width="0.0300" height="0.0300" x="-0.1017" y="0.1442"/><rect width="0.0300" height="0.0300" x="0.2672" y="0.0868"/><rect width="0.0300" height="0.0300" x="0.1730" y="0.0938"/><rect width="0.0300" height="0.0300" x="0.0170" y="0.0049"/><rect width="0.0300" height="0.0300" x="0.0421" y="0.0224"/><rect width="0.0300" height="0.0300" x="-0.1480" y="0.0942"/><rect width="0.0300" height="0.0300" x="0.0600" y="0.0346"/><rect width="0.0300" height="0.0300" x="-0.0107" y="0.0482"/><rect width="0.0300" height="0.0300" x="0.4118" y="-0.0597"/><rect width="0.0300" height="0.0300" x="-0.0025" y="0.2484"/><rect width="0.0300" height="0.0300" x="0.1762" y="0.2108"/><rect width="0.0300" height="0.0300" x="-0.0440" y="0.0391"/><rect width="0.0300" height="0.0300" x="0.2258" y="-0.0912"/><rect width="0.0300" height="0.0300" x="0.1453" y="0.1141"/><rect width="0.0300" height="0.0300" x="-0.1984" y="0.0396"/><rect width="0.0300" height="0.0300" x="0.0031" y="0.0801"/><rect width="0.0300" height="0.0300" x="-0.0862" y="0.0627"/><rect width="0.0300" height="0.0300" x="0.0941" y="0.0472"/><rect width="0.0300" height="0.0300" x="0.0641" y="0.0653"/><rect width="0.0300" height="0.0300" x="-0.0034" y="0.1510"/><rect width="0.0300" height="0.0300" x="0.0901" y="0.0601"/><rect width="0.0300" height="0.0300" x="-0.1293" y="0.1364"/><rect width="0.0300" height="0.0300" x="-0.2122" y="0.0437"/><rect width="0.0300" height="0.0300" x="-0.0025" y="-0.0782"/><rect width="0.0300" height="0.0300" x="0.3078" y="0.2048"/><rect width="0.0300" height="0.0300" x="0.1608" y="-0.1174"/><rect width="0.0300" height="0.0300" x="0.0746" y="0.0267"/><rect width="0.0300" height="0.0300" x="0.4005" y="0.1082"/><rect width="0.0300" height="0.0300" x="0.3241" y="-0.1389"/><rect width="0.0300" height="0.0300" x="0.0235" y="-0.0655"/><rect width="0.0300" height="0.0300" x="-0.0294" y="0.1989"/><rect width="0.0300" height="0.0300" x="-0.2422" y="-0.0980"/><rect width="0.0300" height="0.0300" x="0.0551" y="-0.0173"/><rect width="0.0300" height="0.0300" x="-0.0090" y="-0.0187"/><rect width="0.0300" height="0.0300" x="0.1226" y="-0.0992"/><rect width="0.0300" height="0.0300" x="-0.0310" y="0.1642"/><rect width="0.0300" height="0.0300" x="-0.0407" y="-0.0333"/><rect width="0.0300" height="0.0300" x="0.2347" y="-0.0758"/><rect width="0.0300" height="0.0300" x="-0.2593" y="0.0369"/><rect width="0.0300" height="0.0300" x="0.1916" y="0.1378"/><rect width="0.0300" height="0.0300" x="-0.0285" y="0.2528"/><rect width="0.0300" height="0.0300" x="-0.1455" y="-0.1266"/><rect width="0.0300" height="0.0300" x="0.2258" y="-0.0689"/><rect width="0.0300" height="0.0300" x="-0.2601" y="-0.0733"/><rect width="0.0300" height="0.0300" x="-0.0830" y="-0.0028"/><rect width="0.0300" height="0.0300" x="-0.1415" y="0.0466"/><rect width="0.0300" height="0.0300" x="0.2046" y="0.0449"/><rect width="0.0300" height="0.0300" x="0.0560" y="0.0682"/><rect width="0.0300" height="0.0300" x="0.0958" y="0.0942"/><rect width="0.0300" height="0.0300" x="0.3241" y="0.1077"/><rect width="0.0300" height="0.0300" x="0.0836" y="-0.0513"/><rect width="0.0300" height="0.0300" x="0.1778" y="0.1026"/><rect width="0.0300" height="0.0300" x="0.1803" y="0.1561"/><rect width="0.0300" height="0.0300" x="0.2388" y="0.0213"/><rect width="0.0300" height="0.0300" x="0.0738" y="-0.0812"/><rect width="0.0300" height="0.0300" x="0.2883" y="0.2708"/><rect width="0.0300" height="0.0300" x="0.0462" y="0.0482"/><rect width="0.0300" height="0.0300" x="0.0462" y="0.0417"/><rect width="0.0300" height="0.0300" x="0.0527" y="0.0879"/><rect width="0.0300" height="0.0300" x="0.1356" y="-0.0520"/><rect width="0.0300" height="0.0300" x="0.2339" y="-0.1763"/><rect width="0.0300" height="0.0300" x="0.3590" y="-0.0948"/><rect width="0.0300" height="0.0300" x="-0.0042" y="0.0755"/><rect width="0.0300" height="0.0300" x="0.1242" y="0.0056"/><rect width="0.0300" height="0.0300" x="0.2607" y="0.0861"/><rect width="0.0300" height="0.0300" x="-0.1212" y="-0.0514"/><rect width="0.0300" height="0.0300" x="-0.2195" y="0.1497"/><rect width="0.0300" height="0.0300" x="-0.1399" y="0.1973"/><rect width="0.0300" height="0.0300" x="0.2063" y="-0.1796"/><rect width="0.0300" height="0.0300" x="-0.0245" y="0.1423"/><rect width="0.0300" height="0.0300" x="0.3826" y="0.1659"/><rect width="0.0300" height="0.0300" x="0.4452" y="-0.1478"/><rect width="0.0300" height="0.0300" x="0.1925" y="0.1779"/><rect width="0.0300" height="0.0300" x="-0.0180" y="-0.0522"/><rect width="0.0300" height="0.0300" x="0.2315" y="0.0429"/><rect width="0.0300" height="0.0300" x="-0.0740" y="0.0294"/><rect width="0.0300" height="0.0300" x="-0.0529" y="0.0276"/><rect width="0.0300" height="0.0300" x="0.0852" y="0.0192"/><rect width="0.0300" height="0.0300" x="0.1502" y="-0.0769"/><rect width="0.0300" height="0.0300" x="0.2388" y="0.0117"/><rect width="0.0300" height="0.0300" x="0.0251" y="-0.1611"/><rect width="0.0300" height="0.0300" x="-0.0610" y="0.0118"/><rect width="0.0300" height="0.0300" x="-0.0440" y="0.1049"/><rect width="0.0300" height="0.0300" x="0.0909" y="0.1804"/><rect width="0.0300" height="0.0300" x="-0.2000" y="0.0270"/><rect width="0.0300" height="0.0300" x="0.4362" y="0.1642"/><rect width="0.0300" height="0.0300" x="-0.2244" y="-0.0235"/><rect width="0.0300" height="0.0300" x="0.0478" y="-0.1243"/><rect width="0.0300" height="0.0300" x="0.1356" y="0.2766"/><rect width="0.0300" height="0.0300" x="-0.0700" y="0.1395"/><rect width="0.0300" height="0.0300" x="0.2071" y="0.0263"/><rect width="0.0300" height="0.0300" x="-0.0155" y="0.0639"/><rect width="0.0300" height="0.0300" x="0.2664" y="0.0589"/><rect width="0.0300" height="0.0300" x="0.2290" y="0.0613"/><rect width="0.0300" height="0.0300" x="0.2160" y="-0.0737"/><rect width="0.0300" height="0.0300" x="-0.0927" y="-0.0682"/><rect width="0.0300" height="0.0300" x="0.2883" y="-0.0385"/><rect width="0.0300" height="0.0300" x="-0.1277" y="-0.1531"/><rect width="0.0300" height="0.0300" x="0.3696" y="-0.0548"/><rect width="0.0300" height="0.0300" x="0.0779" y="0.0938"/><rect width="0.0300" height="0.0300" x="0.1023" y="0.0134"/><rect width="0.0300" height="0.0300" x="-0.1057" y="-0.0702"/><rect width="0.0300" height="0.0300" x="0.1453" y="0.0756"/><rect width="0.0300" height="0.0300" x="0.0308" y="0.0617"/><rect width="0.0300" height="0.0300" x="0.0178" y="-0.0823"/><rect width="0.0300" height="0.0300" x="0.2388" y="0.1499"/><rect width="0.0300" height="0.0300" x="0.2550" y="0.0193"/><rect width="0.0300" height="0.0300" x="0.0616" y="0.0576"/><rect width="0.0300" height="0.0300" x="0.1421" y="0.0162"/><rect width="0.0300" height="0.0300" x="-0.0399" y="-0.1229"/><rect width="0.0300" height="0.0300" x="0.1795" y="-0.0797"/><rect width="0.0300" height="0.0300" x="-0.2788" y="0.1137"/><rect width="0.0300" height="0.0300" x="-0.0667" y="0.0542"/><rect width="0.0300" height="0.0300" x="0.0641" y="0.2520"/><rect width="0.0300" height="0.0300" x="0.0535" y="0.0118"/><rect width="0.0300" height="0.0300" x="-0.0066" y="-0.1207"/><rect width="0.0300" height="0.0300" x="-0.1204" y="-0.0126"/><rect width="0.0300" height="0.0300" x="-0.2422" y="0.0621"/><rect width="0.0300" height="0.0300" x="0.1080" y="0.1956"/><rect width="0.0300" height="0.0300" x="0.2404" y="0.0509"/><rect width="0.0300" height="0.0300" x="-0.0586" y="-0.0603"/><rect width="0.0300" height="0.0300" x="-0.1789" y="0.1101"/><rect width="0.0300" height="0.0300" x="0.0243" y="0.2470"/><rect width="0.0300" height="0.0300" x="-0.1285" y="-0.1392"/><rect width="0.0300" height="0.0300" x="0.1461" y="0.1302"/><rect width="0.0300" height="0.0300" x="0.1413" y="0.1925"/><rect width="0.0300" height="0.0300" x="0.0616" y="0.0442"/><rect width="0.0300" height="0.0300" x="0.3184" y="0.2525"/><rect width="0.0300" height="0.0300" x="0.0478" y="0.0900"/><rect width="0.0300" height="0.0300" x="-0.0009" y="-0.0908"/><rect width="0.0300" height="0.0300" x="0.1876" y="0.1956"/><rect width="0.0300" height="0.0300" x="0.2436" y="0.0631"/><rect width="0.0300" height="0.0300" x="0.0373" y="0.1564"/><rect width="0.0300" height="0.0300" x="-0.0667" y="0.0090"/><rect width="0.0300" height="0.0300" x="0.3030" y="0.0666"/><rect width="0.0300" height="0.0300" x="0.3346" y="0.1674"/><rect width="0.0300" height="0.0300" x="-0.1984" y="0.2599"/><rect width="0.0300" height="0.0300" x="-0.0692" y="0.0291"/><rect width="0.0300" height="0.0300" x="0.3997" y="0.0473"/><rect width="0.0300" height="0.0300" x="0.2583" y="0.1761"/><rect width="0.0300" height="0.0300" x="0.2388" y="0.2664"/><rect width="0.0300" height="0.0300" x="-0.2122" y="0.0944"/><rect width="0.0300" height="0.0300" x="-0.0025" y="0.0412"/><rect width="0.0300" height="0.0300" x="0.0121" y="-0.1376"/><rect width="0.0300" height="0.0300" x="-0.0383" y="0.0322"/><rect width="0.0300" height="0.0300" x="0.0901" y="0.0579"/><rect width="0.0300" height="0.0300" x="-0.0017" y="0.0071"/><rect width="0.0300" height="0.0300" x="-0.0180" y="0.2406"/><rect width="0.0300" height="0.0300" x="0.3745" y="-0.0609"/><rect width="0.0300" height="0.0300" x="0.0576" y="0.0105"/><rect width="0.0300" height="0.0300" x="0.2428" y="0.0925"/><rect width="0.0300" height="0.0300" x="0.2672" y="0.0822"/><rect width="0.0300" height="0.0300" x="0.2965" y="-0.0550"/><rect width="0.0300" height="0.0300" x="0.0901" y="0.1230"/><rect width="0.0300" height="0.0300" x="0.0690" y="0.0183"/><rect width="0.0300" height="0.0300" x="-0.0830" y="0.2831"/><rect width="0.0300" height="0.0300" x="0.3411" y="0.0817"/><rect width="0.0300" height="0.0300" x="0.0616" y="0.1547"/><rect width="0.0300" height="0.0300" x="0.0592" y="0.1285"/><rect width="0.0300" height="0.0300" x="-0.0099" y="0.0605"/><rect width="0.0300" height="0.0300" x="0.0820" y="-0.0242"/><rect width="0.0300" height="0.0300" x="-0.1147" y="0.0320"/><rect width="0.0300" height="0.0300" x="0.0657" y="-0.0885"/><rect width="0.0300" height="0.0300" x="0.1908" y="-0.0682"/><rect width="0.0300" height="0.0300" x="0.1461" y="0.1405"/><rect width="0.0300" height="0.0300" x="0.3988" y="0.1824"/><rect width="0.0300" height="0.0300" x="0.3273" y="0.0763"/><rect width="0.0300" height="0.0300" x="-0.2000" y="-0.0229"/><rect width="0.0300" height="0.0300" x="0.0560" y="0.0117"/><rect width="0.0300" height="0.0300" x="0.1071" y="-0.0961"/><rect width="0.0300" height="0.0300" x="0.0616" y="-0.0084"/><rect width="0.0300" height="0.0300" x="0.1315" y="0.1305"/><rect width="0.0300" height="0.0300" x="0.1315" y="-0.0017"/><rect width="0.0300" height="0.0300" x="-0.0635" y="-0.0927"/><rect width="0.0300" height="0.0300" x="-0.0562" y="0.0143"/><rect width="0.0300" height="0.0300" x="-0.0164" y="-0.0508"/><rect width="0.0300" height="0.0300" x="-0.0675" y="0.1588"/><rect width="0.0300" height="0.0300" x="0.2071" y="0.1015"/><rect width="0.0300" height="0.0300" x="0.4338" y="0.0321"/><rect width="0.0300" height="0.0300" x="0.2461" y="-0.1521"/><rect width="0.0300" height="0.0300" x="0.2883" y="-0.1082"/><rect width="0.0300" height="0.0300" x="-0.0164" y="0.0105"/><rect width="0.0300" height="0.0300" x="0.0365" y="-0.0919"/><rect width="0.0300" height="0.0300" x="-0.1789" y="-0.0249"/><rect width="0.0300" height="0.0300" x="0.3753" y="-0.0646"/><rect width="0.0300" height="0.0300" x="0.2323" y="0.1257"/><rect width="0.0300" height="0.0300" x="0.0478" y="-0.1254"/><rect width="0.0300" height="0.0300" x="0.2688" y="0.1694"/><rect width="0.0300" height="0.0300" x="0.0080" y="0.0579"/><rect width="0.0300" height="0.0300" x="0.0738" y="0.2047"/><rect width="0.0300" height="0.0300" x="0.0527" y="0.1996"/><rect width="0.0300" height="0.0300" x="0.1916" y="0.2220"/><rect width="0.0300" height="0.0300" x="0.1153" y="-0.0488"/><rect width="0.0300" height="0.0300" x="-0.0025" y="-0.1007"/><rect width="0.0300" height="0.0300" x="-0.1650" y="0.0345"/><rect width="0.0300" height="0.0300" x="0.2055" y="0.1423"/><rect width="0.0300" height="0.0300" x="-0.0927" y="0.2050"/><rect width="0.0300" height="0.0300" x="0.1388" y="-0.1057"/><rect width="0.0300" height="0.0300" x="-0.0862" y="0.0895"/><rect width="0.0300" height="0.0300" x="0.0462" y="0.0283"/><rect width="0.0300" height="0.0300" x="0.0649" y="0.1316"/><rect width="0.0300" height="0.0300" x="0.0170" y="0.0849"/><rect width="0.0300" height="0.0300" x="-0.0204" y="-0.1345"/><rect width="0.0300" height="0.0300" x="-0.1626" y="0.0587"/><rect width="0.0300" height="0.0300" x="0.1665" y="-0.1056"/><rect width="0.0300" height="0.0300" x="-0.0708" y="0.0302"/><rect width="0.0300" height="0.0300" x="0.0202" y="-0.0833"/><rect width="0.0300" height="0.0300" x="0.0649" y="0.0576"/><rect width="0.0300" height="0.0300" x="0.2981" y="0.0548"/><rect width="0.0300" height="0.0300" x="0.1258" y="0.1750"/><rect width="0.0300" height="0.0300" x="0.0324" y="0.0895"/><rect width="0.0300" height="0.0300" x="0.1283" y="0.1896"/><rect width="0.0300" height="0.0300" x="0.0600" y="0.0429"/><rect width="0.0300" height="0.0300" x="-0.1919" y="-0.0628"/><rect width="0.0300" height="0.0300" x="-0.3649" y="-0.0563"/><rect width="0.0300" height="0.0300" x="0.0251" y="0.1712"/><rect width="0.0300" height="0.0300" x="-0.0489" y="0.1121"/><rect width="0.0300" height="0.0300" x="0.2225" y="0.1263"/><rect width="0.0300" height="0.0300" x="-0.1610" y="0.1366"/><rect width="0.0300" height="0.0300" x="0.3940" y="0.0893"/><rect width="0.0300" height="0.0300" x="0.0015" y="0.0397"/><rect width="0.0300" height="0.0300" x="0.1884" y="-0.0217"/><rect width="0.0300" height="0.0300" x="0.3550" y="-0.1077"/><rect width="0.0300" height="0.0300" x="-0.0903" y="0.2556"/><rect width="0.0300" height="0.0300" x="-0.1171" y="0.1713"/><rect width="0.0300" height="0.0300" x="0.0023" y="0.0447"/><rect width="0.0300" height="0.0300" x="0.1632" y="0.0435"/><rect width="0.0300" height="0.0300" x="0.3346" y="0.2079"/><rect width="0.0300" height="0.0300" x="-0.2642" y="0.2679"/><rect width="0.0300" height="0.0300" x="-0.1114" y="0.1350"/><rect width="0.0300" height="0.0300" x="-0.1724" y="0.0981"/><rect width="0.0300" height="0.0300" x="0.2916" y="0.2440"/><rect width="0.0300" height="0.0300" x="0.2412" y="0.1446"/><rect width="0.0300" height="0.0300" x="0.2851" y="0.1964"/><rect width="0.0300" height="0.0300" x="0.1413" y="0.0278"/><rect width="0.0300" height="0.0300" x="-0.0285" y="0.0782"/><rect width="0.0300" height="0.0300" x="0.0056" y="0.1038"/><rect width="0.0300" height="0.0300" x="0.1941" y="0.0693"/><rect width="0.0300" height="0.0300" x="-0.0797" y="0.0878"/><rect width="0.0300" height="0.0300" x="0.0933" y="0.0578"/><rect width="0.0300" height="0.0300" x="0.2079" y="-0.1746"/><rect width="0.0300" height="0.0300" x="0.0121" y="0.0863"/><rect width="0.0300" height="0.0300" x="-0.2812" y="0.1525"/><rect width="0.0300" height="0.0300" x="-0.0732" y="0.1835"/><rect width="0.0300" height="0.0300" x="0.3160" y="-0.1037"/><rect width="0.0300" height="0.0300" x="0.2046" y="0.0103"/><rect width="0.0300" height="0.0300" x="0.3745" y="0.0518"/><rect width="0.0300" height="0.0300" x="0.1193" y="0.0393"/><rect width="0.0300" height="0.0300" x="0.1177" y="0.1074"/><rect width="0.0300" height="0.0300" x="0.2111" y="0.0117"/><rect width="0.0300" height="0.0300" x="0.0218" y="0.0450"/><rect width="0.0300" height="0.0300" x="0.1266" y="0.0662"/><rect width="0.0300" height="0.0300" x="0.0015" y="0.0294"/><rect width="0.0300" height="0.0300" x="-0.1057" y="0.2402"/><rect width="0.0300" height="0.0300" x="-0.0724" y="0.0061"/><rect width="0.0300" height="0.0300" x="0.1535" y="0.0614"/><rect width="0.0300" height="0.0300" x="0.0543" y="-0.0232"/><rect width="0.0300" height="0.0300" x="0.0365" y="0.0782"/><rect width="0.0300" height="0.0300" x="0.1023" y="-0.0672"/><rect width="0.0300" height="0.0300" x="0.0941" y="0.0362"/><rect width="0.0300" height="0.0300" x="-0.0407" y="0.2495"/><rect width="0.0300" height="0.0300" x="0.3249" y="0.0478"/><rect width="0.0300" height="0.0300" x="-0.1520" y="0.0067"/><rect width="0.0300" height="0.0300" x="0.1900" y="0.0968"/><rect width="0.0300" height="0.0300" x="0.2575" y="0.1675"/><rect width="0.0300" height="0.0300" x="-0.1212" y="0.0116"/><rect width="0.0300" height="0.0300" x="0.1266" y="-0.0694"/><rect width="0.0300" height="0.0300" x="0.1884" y="0.1419"/><rect width="0.0300" height="0.0300" x="0.0657" y="-0.0347"/><rect width="0.0300" height="0.0300" x="0.0998" y="-0.0496"/><rect width="0.0300" height="0.0300" x="0.1583" y="-0.0409"/><rect width="0.0300" height="0.0300" x="0.0803" y="0.0452"/><rect width="0.0300" height="0.0300" x="0.1413" y="0.1076"/><rect width="0.0300" height="0.0300" x="0.0088" y="0.1698"/><rect width="0.0300" height="0.0300" x="-0.1789" y="-0.0578"/><rect width="0.0300" height="0.0300" x="0.0852" y="0.1004"/><rect width="0.0300" height="0.0300" x="0.0787" y="-0.1210"/><rect width="0.0300" height="0.0300" x="0.0771" y="0.2664"/><rect width="0.0300" height="0.0300" x="0.1299" y="0.1077"/><rect width="0.0300" height="0.0300" x="0.1405" y="0.0492"/><rect width="0.0300" height="0.0300" x="0.0966" y="0.0462"/><rect width="0.0300" height="0.0300" x="-0.1975" y="0.0919"/><rect width="0.0300" height="0.0300" x="-0.1520" y="0.0836"/><rect width="0.0300" height="0.0300" x="0.2315" y="-0.0774"/><rect width="0.0300" height="0.0300" x="0.2428" y="0.1140"/><rect width="0.0300" height="0.0300" x="-0.1813" y="0.0270"/><rect width="0.0300" height="0.0300" x="0.0462" y="-0.0603"/><rect width="0.0300" height="0.0300" x="0.0771" y="0.2163"/><rect width="0.0300" height="0.0300" x="-0.0927" y="0.0375"/><rect width="0.0300" height="0.0300" x="0.3403" y="0.0292"/><rect width="0.0300" height="0.0300" x="0.1811" y="0.1477"/><rect width="0.0300" height="0.0300" x="0.0218" y="-0.0700"/><rect width="0.0300" height="0.0300" x="-0.1293" y="0.1504"/><rect width="0.0300" height="0.0300" x="-0.0700" y="0.0118"/><rect width="0.0300" height="0.0300" x="-0.2244" y="0.2284"/><rect width="0.0300" height="0.0300" x="0.0105" y="0.1333"/><rect width="0.0300" height="0.0300" x="0.2347" y="-0.0972"/><rect width="0.0300" height="0.0300" x="-0.0188" y="-0.0207"/><rect width="0.0300" height="0.0300" x="0.0202" y="0.0679"/><rect width="0.0300" height="0.0300" x="0.1210" y="0.1308"/><rect width="0.0300" height="0.0300" x="0.1291" y="0.0336"/><rect width="0.0300" height="0.0300" x="0.0779" y="0.0701"/><rect width="0.0300" height="0.0300" x="0.1811" y="0.0256"/><rect width="0.0300" height="0.0300" x="0.0909" y="0.1078"/><rect width="0.0300" height="0.0300" x="0.0771" y="-0.0256"/><rect width="0.0300" height="0.0300" x="0.2355" y="0.2631"/><rect width="0.0300" height="0.0300" x="-0.0992" y="0.2085"/><rect width="0.0300" height="0.0300" x="0.0811" y="0.1340"/><rect width="0.0300" height="0.0300" x="0.2298" y="0.1165"/><rect width="0.0300" height="0.0300" x="-0.2170" y="0.2260"/><rect width="0.0300" height="0.0300" x="0.0608" y="0.1252"/><rect width="0.0300" height="0.0300" x="0.2071" y="0.1291"/><rect width="0.0300" height="0.0300" x="-0.0879" y="0.0168"/><rect width="0.0300" height="0.0300" x="0.0568" y="-0.1075"/><rect width="0.0300" height="0.0300" x="-0.1293" y="0.0901"/><rect width="0.0300" height="0.0300" x="0.0641" y="-0.0703"/><rect width="0.0300" height="0.0300" x="0.1307" y="0.0604"/><rect width="0.0300" height="0.0300" x="-0.0610" y="0.2726"/><rect width="0.0300" height="0.0300" x="0.3363" y="0.0749"/><rect width="0.0300" height="0.0300" x="-0.0781" y="0.1080"/><rect width="0.0300" height="0.0300" x="0.0958" y="0.2381"/><rect width="0.0300" height="0.0300" x="0.1039" y="0.2017"/><rect width="0.0300" height="0.0300" x="0.2315" y="0.0419"/><rect width="0.0300" height="0.0300" x="0.0031" y="0.0744"/><rect width="0.0300" height="0.0300" x="0.2412" y="0.0540"/><rect width="0.0300" height="0.0300" x="-0.2114" y="0.0971"/><rect width="0.0300" height="0.0300" x="0.1364" y="-0.0335"/><rect width="0.0300" height="0.0300" x="-0.1065" y="-0.1055"/><rect width="0.0300" height="0.0300" x="0.1063" y="-0.0442"/><rect width="0.0300" height="0.0300" x="-0.0099" y="0.1395"/><rect width="0.0300" height="0.0300" x="0.1031" y="-0.0295"/><rect width="0.0300" height="0.0300" x="0.1088" y="-0.1021"/><rect width="0.0300" height="0.0300" x="0.5548" y="0.0831"/><rect width="0.0300" height="0.0300" x="-0.1309" y="-0.0174"/><rect width="0.0300" height="0.0300" x="0.2363" y="0.0160"/><rect width="0.0300" height="0.0300" x="-0.0765" y="0.1520"/><rect width="0.0300" height="0.0300" x="0.2046" y="-0.0460"/><rect width="0.0300" height="0.0300" x="0.1445" y="-0.0740"/><rect width="0.0300" height="0.0300" x="0.0746" y="0.1579"/><rect width="0.0300" height="0.0300" x="0.3379" y="0.0557"/><rect width="0.0300" height="0.0300" x="0.2867" y="-0.1083"/><rect width="0.0300" height="0.0300" x="0.0600" y="0.1076"/><rect width="0.0300" height="0.0300" x="0.1177" y="-0.1706"/><rect width="0.0300" height="0.0300" x="-0.1561" y="0.0938"/><rect width="0.0300" height="0.0300" x="0.1210" y="0.2832"/><rect width="0.0300" height="0.0300" x="-0.0042" y="0.1970"/><rect width="0.0300" height="0.0300" x="0.0738" y="0.0813"/><rect width="0.0300" height="0.0300" x="0.1031" y="0.1809"/><rect width="0.0300" height="0.0300" x="-0.1187" y="-0.0855"/><rect width="0.0300" height="0.0300" x="0.1161" y="0.2792"/><rect width="0.0300" height="0.0300" x="0.0755" y="0.1361"/><rect width="0.0300" height="0.0300" x="-0.0164" y="0.0005"/><rect width="0.0300" height="0.0300" x="0.0170" y="-0.0005"/><rect width="0.0300" height="0.0300" x="-0.2967" y="-0.0328"/><rect width="0.0300" height="0.0300" x="0.1502" y="0.0260"/><rect width="0.0300" height="0.0300" x="0.0218" y="0.0832"/><rect width="0.0300" height="0.0300" x="-0.0944" y="0.1489"/><rect width="0.0300" height="0.0300" x="0.0543" y="0.0863"/><rect width="0.0300" height="0.0300" x="0.1697" y="0.0728"/><rect width="0.0300" height="0.0300" x="-0.0440" y="0.1346"/><rect width="0.0300" height="0.0300" x="0.3086" y="0.0420"/><rect width="0.0300" height="0.0300" x="0.1421" y="0.1749"/><rect width="0.0300" height="0.0300" x="-0.0025" y="0.0978"/><rect width="0.0300" height="0.0300" x="0.2128" y="0.0135"/><rect width="0.0300" height="0.0300" x="0.3501" y="0.0658"/><rect width="0.0300" height="0.0300" x="-0.0903" y="-0.0165"/><rect width="0.0300" height="0.0300" x="0.1665" y="0.1153"/><rect width="0.0300" height="0.0300" x="0.2924" y="0.0805"/><rect width="0.0300" height="0.0300" x="0.1039" y="0.1088"/><rect width="0.0300" height="0.0300" x="-0.1569" y="0.1252"/><rect width="0.0300" height="0.0300" x="0.1340" y="0.1734"/><rect width="0.0300" height="0.0300" x="-0.0139" y="-0.0473"/><rect width="0.0300" height="0.0300" x="0.3257" y="0.2140"/><rect width="0.0300" height="0.0300" x="-0.0684" y="0.0278"/><rect width="0.0300" height="0.0300" x="-0.1228" y="0.2580"/><rect width="0.0300" height="0.0300" x="0.1478" y="0.1743"/><rect width="0.0300" height="0.0300" x="0.0909" y="0.1323"/><rect width="0.0300" height="0.0300" x="0.2428" y="0.0221"/><rect width="0.0300" height="0.0300" x="0.1900" y="0.2199"/><rect width="0.0300" height="0.0300" x="0.0625" y="-0.1086"/><rect width="0.0300" height="0.0300" x="-0.1423" y="0.1469"/><rect width="0.0300" height="0.0300" x="0.2591" y="0.0971"/><rect width="0.0300" height="0.0300" x="0.0860" y="0.0662"/><rect width="0.0300" height="0.0300" x="0.4135" y="0.2696"/><rect width="0.0300" height="0.0300" x="0.0876" y="0.1894"/><rect width="0.0300" height="0.0300" x="0.2461" y="-0.0796"/><rect width="0.0300" height="0.0300" x="0.0625" y="0.0629"/><rect width="0.0300" height="0.0300" x="0.3411" y="-0.1048"/><rect width="0.0300" height="0.0300" x="-0.0464" y="0.2523"/><rect width="0.0300" height="0.0300" x="-0.1390" y="0.0072"/><rect width="0.0300" height="0.0300" x="-0.2447" y="0.0600"/><rect width="0.0300" height="0.0300" x="-0.0359" y="-0.1513"/><rect width="0.0300" height="0.0300" x="0.0649" y="-0.0344"/><rect width="0.0300" height="0.0300" x="0.4939" y="-0.1097"/><rect width="0.0300" height="0.0300" x="0.1884" y="0.1325"/><rect width="0.0300" height="0.0300" x="0.1055" y="-0.0986"/><rect width="0.0300" height="0.0300" x="0.0616" y="0.0755"/><rect width="0.0300" height="0.0300" x="0.4078" y="0.0693"/><rect width="0.0300" height="0.0300" x="0.3460" y="0.0937"/><rect width="0.0300" height="0.0300" x="-0.2853" y="0.0332"/><rect width="0.0300" height="0.0300" x="0.3517" y="0.1076"/><rect width="0.0300" height="0.0300" x="0.2591" y="0.2816"/><rect width="0.0300" height="0.0300" x="-0.1374" y="0.0983"/><rect width="0.0300" height="0.0300" x="-0.0334" y="-0.1735"/><rect width="0.0300" height="0.0300" x="0.0462" y="0.1140"/><rect width="0.0300" height="0.0300" x="-0.0887" y="0.1402"/><rect width="0.0300" height="0.0300" x="0.1234" y="0.2083"/><rect width="0.0300" height="0.0300" x="-0.1082" y="0.1805"/><rect width="0.0300" height="0.0300" x="0.3590" y="0.0563"/><rect width="0.0300" height="0.0300" x="-0.1504" y="0.1758"/><rect width="0.0300" height="0.0300" x="0.1697" y="-0.0901"/><rect width="0.0300" height="0.0300" x="-0.0212" y="0.1237"/><rect width="0.0300" height="0.0300" x="0.3225" y="-0.0737"/><rect width="0.0300" height="0.0300" x="0.1933" y="0.0881"/><rect width="0.0300" height="0.0300" x="-0.2081" y="-0.1088"/><rect width="0.0300" height="0.0300" x="-0.0383" y="-0.0217"/><rect width="0.0300" height="0.0300" x="0.4517" y="-0.1068"/><rect width="0.0300" height="0.0300" x="-0.0164" y="0.1126"/><rect width="0.0300" height="0.0300" x="-0.0066" y="0.0738"/><rect width="0.0300" height="0.0300" x="0.0958" y="0.2403"/><rect width="0.0300" height="0.0300" x="-0.0245" y="0.0355"/><rect width="0.0300" height="0.0300" x="-0.0432" y="-0.0170"/><rect width="0.0300" height="0.0300" x="0.1031" y="0.2386"/><rect width="0.0300" height="0.0300" x="0.2672" y="-0.1182"/><rect width="0.0300" height="0.0300" x="-0.0456" y="0.2779"/><rect width="0.0300" height="0.0300" x="0.2355" y="0.0213"/><rect width="0.0300" height="0.0300" x="0.2193" y="0.0226"/><rect width="0.0300" height="0.0300" x="-0.0066" y="0.2270"/><rect width="0.0300" height="0.0300" x="0.0649" y="-0.0016"/><rect width="0.0300" height="0.0300" x="0.2558" y="0.0483"/><rect width="0.0300" height="0.0300" x="-0.0992" y="0.0578"/><rect width="0.0300" height="0.0300" x="0.0048" y="0.0981"/><rect width="0.0300" height="0.0300" x="0.1023" y="0.1781"/><rect width="0.0300" height="0.0300" x="-0.0082" y="-0.0503"/><rect width="0.0300" height="0.0300" x="0.2412" y="0.0252"/><rect width="0.0300" height="0.0300" x="0.2900" y="0.2048"/><rect width="0.0300" height="0.0300" x="0.1608" y="-0.0790"/><rect width="0.0300" height="0.0300" x="0.0348" y="-0.0939"/><rect width="0.0300" height="0.0300" x="-0.0302" y="0.2269"/><rect width="0.0300" height="0.0300" x="-0.0716" y="0.0910"/><rect width="0.0300" height="0.0300" x="-0.0578" y="0.0821"/><rect width="0.0300" height="0.0300" x="0.0966" y="-0.0548"/><rect width="0.0300" height="0.0300" x="0.0941" y="0.0013"/><rect width="0.0300" height="0.0300" x="-0.0188" y="0.1367"/><rect width="0.0300" height="0.0300" x="0.1364" y="0.0832"/><rect width="0.0300" height="0.0300" x="0.3078" y="0.1318"/><rect width="0.0300" height="0.0300" x="-0.0164" y="0.0769"/><rect width="0.0300" height="0.0300" x="0.1778" y="0.1254"/><rect width="0.0300" height="0.0300" x="0.0730" y="0.0853"/><rect width="0.0300" height="0.0300" x="-0.2057" y="0.1372"/><rect width="0.0300" height="0.0300" x="0.1120" y="-0.1228"/><rect width="0.0300" height="0.0300" x="0.1210" y="0.0156"/><rect width="0.0300" height="0.0300" x="0.3745" y="0.0739"/><rect width="0.0300" height="0.0300" x="-0.1334" y="0.0725"/><rect width="0.0300" height="0.0300" x="0.0746" y="-0.0250"/><rect width="0.0300" height="0.0300" x="0.1673" y="0.0121"/><rect width="0.0300" height="0.0300" x="0.0543" y="0.0096"/><rect width="0.0300" height="0.0300" x="-0.0513" y="-0.0653"/><rect width="0.0300" height="0.0300" x="0.3054" y="0.0898"/><rect width="0.0300" height="0.0300" x="0.0990" y="0.0605"/><rect width="0.0300" height="0.0300" x="-0.0261" y="0.0880"/><rect width="0.0300" height="0.0300" x="0.0681" y="0.0524"/><rect width="0.0300" height="0.0300" x="0.1900" y="0.0435"/><rect width="0.0300" height="0.0300" x="-0.0334" y="-0.1248"/><rect width="0.0300" height="0.0300" x="0.1494" y="0.2152"/><rect width="0.0300" height="0.0300" x="0.1112" y="0.0161"/><rect width="0.0300" height="0.0300" x="0.1640" y="-0.0245"/><rect width="0.0300" height="0.0300" x="0.0998" y="0.1510"/><rect width="0.0300" height="0.0300" x="0.1405" y="0.1727"/><rect width="0.0300" height="0.0300" x="0.0291" y="0.2046"/><rect width="0.0300" height="0.0300" x="0.3704" y="0.0885"/></g></g><g class="datapadding"></g></g><g class="hud"><g class="frame"><g stroke-width="0" stroke="rgb(0%, 0%, 0%)" stroke-opacity="0" fill="rgb(100%, 100%, 100%)" fill-opacity="0.02"><rect width="1.1375" height="0.7644" x="-0.4360" y="-0.4536"/></g></g><g class="axis"><g class="axisbar"><g stroke-width="0" stroke="rgb(0%, 0%, 0%)" stroke-opacity="0" fill="rgb(5%, 5%, 5%)" fill-opacity="0.4"><rect width="1.1405" height="0.0030" x="-0.4376" y="0.3138"/></g></g><g class="ticks"><g class="ticklines"><g stroke-width="0.0050" stroke="rgb(5%, 5%, 5%)" stroke-opacity="0.05" fill="none"><polyline points="-0.4360,0.3062 -0.4360,-0.4536"/><polyline points="-0.2735,0.3062 -0.2735,-0.4536"/><polyline points="-0.1110,0.3062 -0.1110,-0.4536"/><polyline points="0.0515,0.3062 0.0515,-0.4536"/><polyline points="0.2140,0.3062 0.2140,-0.4536"/><polyline points="0.3765,0.3062 0.3765,-0.4536"/><polyline points="0.5390,0.3062 0.5390,-0.4536"/><polyline points="0.7015,0.3062 0.7015,-0.4536"/></g></g><g class="tickglyph"><g stroke-width="0.0030" stroke="rgb(5%, 5%, 5%)" stroke-opacity="0.4" fill="rgb(5%, 5%, 5%)" fill-opacity="0.4"><polyline points="-0.4360,0.3381
-0.4360,0.3153"/><polyline points="-0.2735,0.3381
-0.2735,0.3153"/><polyline points="-0.1110,0.3381
-0.1110,0.3153"/><polyline points="0.0515,0.3381
0.0515,0.3153"/><polyline points="0.2140,0.3381
0.2140,0.3153"/><polyline points="0.3765,0.3381
0.3765,0.3153"/><polyline points="0.5390,0.3381
0.5390,0.3153"/><polyline points="0.7015,0.3381
0.7015,0.3153"/></g></g><g class="ticktext"><g stroke-width="0.0" stroke="none" fill="rgb(5%, 5%, 5%)" fill-opacity="1.0" font-size="0.0400" text-anchor="middle"><text x="-0.4360" y="0.3799"> 6</text><text x="-0.2735" y="0.3799"> 8</text><text x="-0.1110" y="0.3799">10</text><text x="0.0515" y="0.3799">12</text><text x="0.2140" y="0.3799">14</text><text x="0.3765" y="0.3799">16</text><text x="0.5390" y="0.3799">18</text><text x="0.7015" y="0.3799">20</text></g></g></g></g><g class="axis"><g class="axisbar"><g stroke-width="0" stroke="rgb(0%, 0%, 0%)" stroke-opacity="0" fill="rgb(5%, 5%, 5%)" fill-opacity="0.4"><rect width="0.0030" height="0.7629" x="-0.4467" y="-0.4552"/></g></g><g class="ticks"><g class="ticklines"><g stroke-width="0.0050" stroke="rgb(5%, 5%, 5%)" stroke-opacity="0.05" fill="none"><polyline points="-0.4360,0.3062 0.7015,0.3062"/><polyline points="-0.4360,0.1543 0.7015,0.1543"/><polyline points="-0.4360,0.0023 0.7015,0.0023"/><polyline points="-0.4360,-0.1497 0.7015,-0.1497"/><polyline points="-0.4360,-0.3017 0.7015,-0.3017"/><polyline points="-0.4360,-0.4536 0.7015,-0.4536"/></g></g><g class="tickglyph"><g stroke-width="0.0030" stroke="rgb(5%, 5%, 5%)" stroke-opacity="0.4" fill="rgb(5%, 5%, 5%)" fill-opacity="0.4"><polyline points="-0.4679,0.3062
-0.4451,0.3062"/><polyline points="-0.4679,0.1543
-0.4451,0.1543"/><polyline points="-0.4679,0.0023
-0.4451,0.0023"/><polyline points="-0.4679,-0.1497
-0.4451,-0.1497"/><polyline points="-0.4679,-0.3017
-0.4451,-0.3017"/><polyline points="-0.4679,-0.4536
-0.4451,-0.4536"/></g></g><g class="ticktext"><g stroke-width="0.0" stroke="none" fill="rgb(5%, 5%, 5%)" fill-opacity="1.0" font-size="0.0400" text-anchor="end"><text x="-0.4846" y="0.3146">     0</text><text x="-0.4846" y="0.1626">10,000</text><text x="-0.4846" y="0.0106">20,000</text><text x="-0.4846" y="-0.1413">30,000</text><text x="-0.4846" y="-0.2933">40,000</text><text x="-0.4846" y="-0.4453">50,000</text></g></g></g></g><g class="title"><g stroke-width="0.0" stroke="none" fill="rgb(5%, 5%, 5%)" fill-opacity="1.0" font-size="0.0600" text-anchor="middle"><text x="0.0629" y="0.4559">interest_rate</text></g></g><g class="title"><g stroke-width="0.0" stroke="none" fill="rgb(5%, 5%, 5%)" fill-opacity="1.0" font-size="0.0600" text-anchor="middle"><text x="-0.6833" y="-0.0403" transform="rotate(-90.0, -0.6833, -0.0403)">loan_amount</text></g></g><g class="frame"><g stroke-width="0" stroke="rgb(0%, 0%, 0%)" stroke-opacity="0" fill="rgb(0%, 0%, 0%)" fill-opacity="0"><rect width="1.5" height="1.0" x="-0.75" y="-0.5"/></g></g></g></svg>